<?xml version="1.0" encoding="UTF-8"?>
<svg version="1.1" xmlns="http://www.w3.org/2000/svg" width="2036" height="2036">
<path d="M0 0 C1.86294579 -0.00323267 3.72589134 -0.00659804 5.58883667 -0.01008606 C9.46954941 -0.01601567 13.3502401 -0.01793265 17.23095703 -0.01733398 C21.13009325 -0.01725321 25.02911077 -0.0241293 28.92822266 -0.0378418 C53.36310553 -0.12236383 77.62295451 0.31949461 101.9921875 2.16796875 C102.99165405 2.24131439 103.99112061 2.31466003 105.02087402 2.39022827 C110.70572913 2.81252278 116.38093424 3.30445521 122.0546875 3.85546875 C122.89785522 3.9362265 123.74102295 4.01698425 124.60974121 4.10018921 C207.08107113 12.1017749 288.57991928 30.44036201 579.9921875 164.16796875 C581.25502254 165.0015836 582.51804472 165.83491504 583.78125 166.66796875 C605.07210772 180.74740692 625.83080345 195.51103896 645.9921875 211.16796875 C646.62672852 211.66071289 647.26126953 212.15345703 647.91503906 212.66113281 C659.59279667 221.74790705 671.01858353 231.1201358 682.28320312 240.71337891 C683.43457608 241.69336177 684.58694104 242.6721802 685.74023438 243.64990234 C692.56444933 249.43540392 699.30074257 255.29023273 705.86645508 261.3684082 C708.61745696 263.91504729 711.3998835 266.4113085 714.2421875 268.85546875 C717.57712038 271.74252841 720.67895245 274.80783244 723.7421875 277.98046875 C725.570814 279.75830007 727.42329399 281.39660765 729.36328125 283.046875 C735.23967142 288.15317097 740.68148798 293.70822809 746.17407227 299.21948242 C748.05048225 301.10125149 749.93217719 302.97761613 751.81445312 304.85351562 C762.71831969 315.75196699 762.71831969 315.75196699 767.60913086 321.57055664 C769.15752058 323.35892627 770.8036516 325.01203196 772.4921875 326.66796875 C775.52813675 329.65669212 778.33727409 332.78503354 781.1171875 336.01171875 C783.16577844 338.36759833 785.26421752 340.67304335 787.3671875 342.98046875 C791.22241136 347.25107026 794.86801265 351.65570544 798.484375 356.12890625 C801.38051177 359.63855486 804.36914576 363.05801467 807.3671875 366.48046875 C812.97728156 372.90892119 818.30686135 379.50677182 823.51611328 386.26220703 C825.11090229 388.3212416 826.72031041 390.36825765 828.33203125 392.4140625 C835.94882781 402.10295875 843.30217907 411.94769867 850.44384766 421.99169922 C851.9271553 424.07656272 853.417994 426.15584395 854.91015625 428.234375 C907.89314511 502.337146 951.03001669 584.16857589 1040.9921875 954.16796875 C1041.05157706 955.17745339 1041.05157706 955.17745339 1041.1121664 956.20733166 C1041.84196886 968.87132998 1042.15482244 981.49216827 1042.16015625 994.17578125 C1042.16338892 996.03872704 1042.16675429 997.90167259 1042.17024231 999.76461792 C1042.17617192 1003.64533066 1042.1780889 1007.52602135 1042.17749023 1011.40673828 C1042.17740946 1015.3058745 1042.18428555 1019.20489202 1042.19799805 1023.10400391 C1042.28252008 1047.53888678 1041.84066164 1071.79873576 1039.9921875 1096.16796875 C1039.88216904 1097.66716858 1039.88216904 1097.66716858 1039.76992798 1099.19665527 C1039.34763347 1104.88151038 1038.85570104 1110.55671549 1038.3046875 1116.23046875 C1038.22392975 1117.07363647 1038.143172 1117.9168042 1038.05996704 1118.78552246 C1030.05838135 1201.25685238 1011.71979424 1282.75570053 879.18505859 1572.37353516 C878.00545547 1574.14800977 876.83590332 1575.92876679 875.66796875 1577.7109375 C852.98334956 1612.18645888 828.19401566 1645.17074073 801.38232422 1676.53955078 C799.92684739 1678.24450871 798.47692697 1679.95409205 797.02734375 1681.6640625 C791.72865885 1687.89881424 786.3504235 1694.0376935 780.79174805 1700.04223633 C778.24510896 1702.79323821 775.74884775 1705.57566475 773.3046875 1708.41796875 C770.41762784 1711.75290163 767.35232381 1714.8547337 764.1796875 1717.91796875 C762.39229307 1719.75643159 760.74258565 1721.62076446 759.08203125 1723.5703125 C754.11672587 1729.28444891 748.72739039 1734.582016 743.36791992 1739.92260742 C741.55857817 1741.7265896 739.75464431 1743.5358554 737.95117188 1745.34570312 C732.62082151 1750.67880615 727.29064886 1755.93924066 721.54663086 1760.83178711 C719.59016571 1762.51354206 717.78358462 1764.31259316 715.9921875 1766.16796875 C712.8210272 1769.38231606 709.53635997 1772.38547838 706.11328125 1775.328125 C703.76727692 1777.36305694 701.474823 1779.45087842 699.1796875 1781.54296875 C694.90908599 1785.39819261 690.50445081 1789.0437939 686.03125 1792.66015625 C682.52160139 1795.55629302 679.10214158 1798.54492701 675.6796875 1801.54296875 C669.25123506 1807.15306281 662.65338443 1812.4826426 655.89794922 1817.69189453 C653.83891465 1819.28668354 651.7918986 1820.89609166 649.74609375 1822.5078125 C640.0571975 1830.12460906 630.21245758 1837.47796032 620.16845703 1844.61962891 C618.08359353 1846.10293655 616.0043123 1847.59377525 613.92578125 1849.0859375 C539.82301025 1902.06892636 457.99158036 1945.20579794 87.9921875 2035.16796875 C87.31919774 2035.20756179 86.64620798 2035.24715483 85.95282459 2035.28794765 C73.28882627 2036.01775011 60.66798798 2036.33060369 47.984375 2036.3359375 C46.12142921 2036.33917017 44.25848366 2036.34253554 42.39553833 2036.34602356 C38.51482559 2036.35195317 34.6341349 2036.35387015 30.75341797 2036.35327148 C26.85428175 2036.35319071 22.95526423 2036.3600668 19.05615234 2036.3737793 C-5.37873053 2036.45830133 -29.63857951 2036.01644289 -54.0078125 2034.16796875 C-55.50701233 2034.05795029 -55.50701233 2034.05795029 -57.03649902 2033.94570923 C-62.72135413 2033.52341472 -68.39655924 2033.03148229 -74.0703125 2032.48046875 C-74.91348022 2032.399711 -75.75664795 2032.31895325 -76.62536621 2032.23574829 C-159.09669613 2024.2341626 -240.59554428 2005.89557549 -530.21337891 1873.36083984 C-531.98785352 1872.18123672 -533.76861054 1871.01168457 -535.55078125 1869.84375 C-570.02630263 1847.15913081 -603.01058448 1822.36979691 -634.37939453 1795.55810547 C-636.08435246 1794.10262864 -637.7939358 1792.65270822 -639.50390625 1791.203125 C-645.73865799 1785.9044401 -651.87753725 1780.52620475 -657.88208008 1774.9675293 C-660.63308196 1772.42089021 -663.4155085 1769.924629 -666.2578125 1767.48046875 C-669.59274538 1764.59340909 -672.69457745 1761.52810506 -675.7578125 1758.35546875 C-677.586439 1756.57763743 -679.43891899 1754.93932985 -681.37890625 1753.2890625 C-687.25529642 1748.18276653 -692.69711298 1742.62770941 -698.18969727 1737.11645508 C-700.06610725 1735.23468601 -701.94780219 1733.35832137 -703.83007812 1731.48242188 C-714.73394469 1720.58397051 -714.73394469 1720.58397051 -719.62475586 1714.76538086 C-721.17314558 1712.97701123 -722.8192766 1711.32390554 -724.5078125 1709.66796875 C-727.54376175 1706.67924538 -730.35289909 1703.55090396 -733.1328125 1700.32421875 C-735.18140344 1697.96833917 -737.27984252 1695.66289415 -739.3828125 1693.35546875 C-743.23803636 1689.08486724 -746.88363765 1684.68023206 -750.5 1680.20703125 C-753.39613677 1676.69738264 -756.38477076 1673.27792283 -759.3828125 1669.85546875 C-764.99290656 1663.42701631 -770.32248635 1656.82916568 -775.53173828 1650.07373047 C-777.12652729 1648.0146959 -778.73593541 1645.96767985 -780.34765625 1643.921875 C-787.96445281 1634.23297875 -795.31780407 1624.38823883 -802.45947266 1614.34423828 C-803.9427803 1612.25937478 -805.433619 1610.18009355 -806.92578125 1608.1015625 C-859.90877011 1533.9987915 -903.04564169 1452.16736161 -993.0078125 1082.16796875 C-993.04740554 1081.49497899 -993.08699858 1080.82198923 -993.1277914 1080.12860584 C-993.85759386 1067.46460752 -994.17044744 1054.84376923 -994.17578125 1042.16015625 C-994.17901392 1040.29721046 -994.18237929 1038.43426491 -994.18586731 1036.57131958 C-994.19179692 1032.69060684 -994.1937139 1028.80991615 -994.19311523 1024.92919922 C-994.19303446 1021.030063 -994.19991055 1017.13104548 -994.21362305 1013.23193359 C-994.29814508 988.79705072 -993.85628664 964.53720174 -992.0078125 940.16796875 C-991.89779404 938.66876892 -991.89779404 938.66876892 -991.78555298 937.13928223 C-991.36325847 931.45442712 -990.87132604 925.77922201 -990.3203125 920.10546875 C-990.23955475 919.26230103 -990.158797 918.4191333 -990.07559204 917.55041504 C-982.07400635 835.07908512 -963.73541924 753.58023697 -830.0078125 462.16796875 C-829.17419765 460.90513371 -828.34086621 459.64211153 -827.5078125 458.37890625 C-813.42837433 437.08804853 -798.66474229 416.3293528 -783.0078125 396.16796875 C-782.51506836 395.53342773 -782.02232422 394.89888672 -781.51464844 394.24511719 C-772.4278742 382.56735958 -763.05564545 371.14157272 -753.46240234 359.87695312 C-752.48241948 358.72558017 -751.50360105 357.57321521 -750.52587891 356.41992188 C-744.74037733 349.59570692 -738.88554852 342.85941368 -732.80737305 336.29370117 C-730.26073396 333.54269929 -727.76447275 330.76027275 -725.3203125 327.91796875 C-722.43325284 324.58303587 -719.36794881 321.4812038 -716.1953125 318.41796875 C-714.41748118 316.58934225 -712.7791736 314.73686226 -711.12890625 312.796875 C-706.02261028 306.92048483 -700.46755316 301.47866827 -694.95629883 295.98608398 C-693.07452976 294.109674 -691.19816512 292.22797906 -689.32226562 290.34570312 C-678.42381426 279.44183656 -678.42381426 279.44183656 -672.60522461 274.55102539 C-670.81685498 273.00263567 -669.16374929 271.35650465 -667.5078125 269.66796875 C-664.51908913 266.6320195 -661.39074771 263.82288216 -658.1640625 261.04296875 C-655.80818292 258.99437781 -653.5027379 256.89593873 -651.1953125 254.79296875 C-646.92471099 250.93774489 -642.52007581 247.2921436 -638.046875 243.67578125 C-634.53722639 240.77964448 -631.11776658 237.79101049 -627.6953125 234.79296875 C-621.26686006 229.18287469 -614.66900943 223.8532949 -607.91357422 218.64404297 C-605.85453965 217.04925396 -603.8075236 215.43984584 -601.76171875 213.828125 C-592.0728225 206.21132844 -582.22808258 198.85797718 -572.18408203 191.71630859 C-570.09921853 190.23300095 -568.0199373 188.74216225 -565.94140625 187.25 C-491.83863525 134.26701114 -410.00720536 91.13013956 -40.0078125 1.16796875 C-39.33482274 1.12837571 -38.66183298 1.08878267 -37.96844959 1.04798985 C-25.30445127 0.31818739 -12.68361298 0.00533381 0 0 Z " fill="#FF4B52" transform="translate(994.0078125,-0.16796875)"/>
<path d="M0 0 C5.69267672 4.73549486 10.9428961 9.80240203 16.16977596 15.04393482 C17.52921353 16.40119223 17.52921353 16.40119223 18.91611448 17.78586897 C21.42749231 20.29336171 23.93575979 22.8039455 26.44352155 25.31505399 C29.17382583 28.04789836 31.907031 30.7778389 34.6398645 33.50815362 C39.42760947 38.29228816 44.21349264 43.07827886 48.9981575 47.86549377 C56.11279844 54.98391627 63.23029393 62.09947947 70.34835442 69.21448239 C83.05920267 81.92006387 95.76718743 94.62850634 108.47395844 107.33816532 C119.59003438 118.45675537 130.7070375 129.57441731 141.82496834 140.69115257 C142.56202365 141.4281315 143.29907896 142.16511042 144.05846928 142.92442204 C147.05024173 145.91588317 150.04201772 148.90734075 153.03379952 151.89879252 C181.10053415 179.96246783 209.16435099 208.02905931 237.22686504 236.09695494 C262.17865919 261.0534977 287.13304141 286.00744984 312.08959961 310.95922852 C340.11473 338.97900967 368.13825107 367.00039873 396.1591602 395.02440137 C399.14335095 398.00891285 402.12754565 400.99342039 405.11174202 403.97792625 C405.84655257 404.71281588 406.58136313 405.44770552 407.33844067 406.20486453 C418.45451303 417.3220763 429.57182246 428.43804998 440.68972588 439.55343056 C453.32143103 452.1822837 465.95136262 464.8129075 478.57892131 477.44590674 C485.65376204 484.52369471 492.72999076 491.6000884 499.80818423 498.67452348 C504.52657964 503.39068878 509.24317701 508.10864703 513.95826998 512.828114 C516.650845 515.52308439 519.34423006 518.21723215 522.0397846 520.90922264 C524.93291254 523.79856394 527.82222054 526.69169382 530.71111202 529.58527088 C531.56262286 530.43444056 532.41413371 531.28361023 533.29144791 532.15851232 C534.05223228 532.92180022 534.81301666 533.68508811 535.5968551 534.47150594 C536.59028614 535.46503862 536.59028614 535.46503862 537.60378649 536.47864266 C539 538 539 538 539 539 C531.08 539 523.16 539 515 539 C515 664.4 515 789.8 515 919 C480.68 919 446.36 919 411 919 C410.67 817.69 410.34 716.38 410 612 C406.04 615.63 402.08 619.26 398 623 C394 626.5 394 626.5 392.125 628.125 C389.38176582 630.54550075 386.69115432 633.02200642 384 635.5 C380.09018405 639.10012756 376.14133532 642.64417605 372.125 646.125 C369.38176582 648.54550075 366.69115432 651.02200642 364 653.5 C360.09018405 657.10012756 356.14133532 660.64417605 352.125 664.125 C349.38176582 666.54550075 346.69115432 669.02200642 344 671.5 C340.09018405 675.10012756 336.14133532 678.64417605 332.125 682.125 C328.84491419 685.01919336 325.63731943 687.99218892 322.41967773 690.95532227 C319.66526572 693.48740116 316.89257501 695.99035268 314.0625 698.4375 C310.47041112 701.54964381 306.98453574 704.7687771 303.5 708 C299.35507192 711.84257687 295.19638259 715.65531723 290.90234375 719.33203125 C289.46939328 720.58843751 288.07126946 721.88472977 286.69140625 723.19921875 C285.51384766 724.30716797 285.51384766 724.30716797 284.3125 725.4375 C283.60738281 726.11683594 282.90226562 726.79617188 282.17578125 727.49609375 C280 729 280 729 277.59375 729.5390625 C273.87354499 728.76588736 271.79394648 726.53385701 269.1875 723.9375 C268.11913979 722.91468499 267.05012973 721.89254833 265.98046875 720.87109375 C265.46661621 720.37335449 264.95276367 719.87561523 264.42333984 719.36279297 C262.66624132 717.68043895 260.84653494 716.08329726 259 714.5 C255.0691075 711.0932265 251.24803427 707.56997215 247.421875 704.046875 C244.64505943 701.49444857 241.85019283 698.97016712 239 696.5 C235.0691075 693.0932265 231.24803427 689.56997215 227.421875 686.046875 C224.64505943 683.49444857 221.85019283 680.97016712 219 678.5 C215.0691075 675.0932265 211.24803427 671.56997215 207.421875 668.046875 C204.64505943 665.49444857 201.85019283 662.97016712 199 660.5 C195.0691075 657.0932265 191.24803427 653.56997215 187.421875 650.046875 C184.64505943 647.49444857 181.85019283 644.97016712 179 642.5 C175.6094922 639.5615599 172.3003097 636.53885858 169 633.5 C165.67798442 630.44148124 162.34688456 627.39883402 158.9375 624.4375 C153.89224253 620.03291015 148.95566735 615.50515214 144 611 C143.67 712.97 143.34 814.94 143 920 C108.411875 920.020625 73.82375 920.04125 38.1875 920.0625 C27.39571045 920.071604 16.6039209 920.08070801 5.48510742 920.09008789 C-8.02282715 920.09460449 -8.02282715 920.09460449 -14.41020203 920.09544373 C-18.7317815 920.09634974 -23.05334781 920.09998881 -27.37492371 920.10557556 C-28.49279282 920.10682009 -29.61066194 920.10806462 -30.76240587 920.10934687 C-32.8140764 920.11172375 -34.86574648 920.11460335 -36.91741514 920.11824942 C-68.96265821 920.15235081 -100.94884396 919.54323993 -133 919 C-133.33 817.69 -133.66 716.38 -134 612 C-138.29 615.96 -142.58 619.92 -147 624 C-151.0625 627.5625 -151.0625 627.5625 -152.91015625 629.16015625 C-155.64370559 631.56670156 -158.32114006 634.03303196 -161 636.5 C-164.90979181 640.10015323 -168.85866536 643.64417664 -172.875 647.125 C-175.61823418 649.54550075 -178.30884568 652.02200642 -181 654.5 C-184.90981595 658.10012756 -188.85866468 661.64417605 -192.875 665.125 C-195.61823418 667.54550075 -198.30884568 670.02200642 -201 672.5 C-204.90981595 676.10012756 -208.85866468 679.64417605 -212.875 683.125 C-215.61823418 685.54550075 -218.30884568 688.02200642 -221 690.5 C-224.90981595 694.10012756 -228.85866468 697.64417605 -232.875 701.125 C-235.61823531 703.54550175 -238.30879579 706.02205946 -241 708.5 C-244.97235163 712.15639015 -248.96540632 715.78020293 -253.0625 719.296875 C-254.50768119 720.56723589 -255.91937157 721.87588778 -257.3125 723.203125 C-258.09625 723.94046875 -258.88 724.6778125 -259.6875 725.4375 C-260.39261719 726.11683594 -261.09773438 726.79617188 -261.82421875 727.49609375 C-264 729 -264 729 -266.40625 729.5390625 C-270.12645501 728.76588736 -272.20605352 726.53385701 -274.8125 723.9375 C-275.88086021 722.91468499 -276.94987027 721.89254833 -278.01953125 720.87109375 C-278.53338379 720.37335449 -279.04723633 719.87561523 -279.57666016 719.36279297 C-281.33375868 717.68043895 -283.15346506 716.08329726 -285 714.5 C-288.9308925 711.0932265 -292.75196573 707.56997215 -296.578125 704.046875 C-299.35494057 701.49444857 -302.14980717 698.97016712 -305 696.5 C-308.9308925 693.0932265 -312.75196573 689.56997215 -316.578125 686.046875 C-319.35494057 683.49444857 -322.14980717 680.97016712 -325 678.5 C-328.9308925 675.0932265 -332.75196573 671.56997215 -336.578125 668.046875 C-339.35494057 665.49444857 -342.14980717 662.97016712 -345 660.5 C-348.9308925 657.0932265 -352.75196573 653.56997215 -356.578125 650.046875 C-359.35494057 647.49444857 -362.14980717 644.97016712 -365 642.5 C-368.3905078 639.5615599 -371.6996903 636.53885858 -375 633.5 C-378.32201558 630.44148124 -381.65311544 627.39883402 -385.0625 624.4375 C-390.10775747 620.03291015 -395.04433265 615.50515214 -400 611 C-400.33 712.97 -400.66 814.94 -401 920 C-435.32 920 -469.64 920 -505 920 C-505 791.96 -505 663.92 -505 532 C-513.58 532 -522.16 532 -531 532 C-524.25 524.125 -524.25 524.125 -520.88849366 520.76429516 C-519.73945197 519.61188254 -519.73945197 519.61188254 -518.56719732 518.43618885 C-517.74067805 517.61229659 -516.91415877 516.78840432 -516.06259346 515.93954563 C-515.16927421 515.04507254 -514.27595496 514.15059944 -513.35556543 513.2290211 C-510.88038773 510.75078656 -508.40211554 508.27566716 -505.9233191 505.8010529 C-503.22550996 503.10668764 -500.53061494 500.4094103 -497.83534706 497.71250337 C-493.11276421 492.98784915 -488.38833012 488.26505246 -483.66267586 483.54347038 C-476.63582301 476.52265588 -469.61184275 469.49897276 -462.58844728 462.47469982 C-450.773544 450.65848295 -438.95631538 438.84459422 -427.13776016 427.03203011 C-415.43575141 415.33593818 -403.73477712 403.63881297 -392.03518295 391.94030571 C-391.30776333 391.21295483 -390.58034371 390.48560395 -389.83088107 389.73621213 C-386.13669656 386.04236595 -382.44253051 382.34850129 -378.74837159 378.65462952 C-352.58196888 352.49032728 -326.41324842 326.32834433 -300.24316406 300.16772461 C-274.81913841 274.75288316 -249.3961632 249.33699168 -223.97460938 223.91967773 C-223.19101918 223.13621906 -222.40742898 222.35276039 -221.60009363 221.54556055 C-213.73096694 213.67775238 -205.8618616 205.80992286 -197.9927719 197.94207769 C-181.9624986 181.9143406 -165.93208279 165.88674604 -149.90158081 149.85923767 C-148.79599389 148.75385669 -148.79599389 148.75385669 -147.66807189 147.62614478 C-98.44776839 98.41504209 -49.2241431 49.20726203 0 0 Z " fill="#FFFEFE" transform="translate(1016,728)"/>
<path d="M0 0 C1.86294579 -0.00323267 3.72589134 -0.00659804 5.58883667 -0.01008606 C9.46954941 -0.01601567 13.3502401 -0.01793265 17.23095703 -0.01733398 C21.13009325 -0.01725321 25.02911077 -0.0241293 28.92822266 -0.0378418 C53.36310553 -0.12236383 77.62295451 0.31949461 101.9921875 2.16796875 C102.99165405 2.24131439 103.99112061 2.31466003 105.02087402 2.39022827 C110.70572913 2.81252278 116.38093424 3.30445521 122.0546875 3.85546875 C122.89785522 3.9362265 123.74102295 4.01698425 124.60974121 4.10018921 C207.08107113 12.1017749 288.57991928 30.44036201 579.9921875 164.16796875 C581.25502254 165.0015836 582.51804472 165.83491504 583.78125 166.66796875 C605.07210772 180.74740692 625.83080345 195.51103896 645.9921875 211.16796875 C646.62672852 211.66071289 647.26126953 212.15345703 647.91503906 212.66113281 C659.59279667 221.74790705 671.01858353 231.1201358 682.28320312 240.71337891 C683.43457608 241.69336177 684.58694104 242.6721802 685.74023438 243.64990234 C692.56444933 249.43540392 699.30074257 255.29023273 705.86645508 261.3684082 C708.61745696 263.91504729 711.3998835 266.4113085 714.2421875 268.85546875 C717.57712038 271.74252841 720.67895245 274.80783244 723.7421875 277.98046875 C725.570814 279.75830007 727.42329399 281.39660765 729.36328125 283.046875 C735.23967142 288.15317097 740.68148798 293.70822809 746.17407227 299.21948242 C748.05048225 301.10125149 749.93217719 302.97761613 751.81445312 304.85351562 C762.71831969 315.75196699 762.71831969 315.75196699 767.60913086 321.57055664 C769.15752058 323.35892627 770.8036516 325.01203196 772.4921875 326.66796875 C775.52813675 329.65669212 778.33727409 332.78503354 781.1171875 336.01171875 C783.16577844 338.36759833 785.26421752 340.67304335 787.3671875 342.98046875 C791.22241136 347.25107026 794.86801265 351.65570544 798.484375 356.12890625 C801.38051177 359.63855486 804.36914576 363.05801467 807.3671875 366.48046875 C812.97728156 372.90892119 818.30686135 379.50677182 823.51611328 386.26220703 C825.11090229 388.3212416 826.72031041 390.36825765 828.33203125 392.4140625 C835.94882781 402.10295875 843.30217907 411.94769867 850.44384766 421.99169922 C851.9271553 424.07656272 853.417994 426.15584395 854.91015625 428.234375 C907.89314511 502.337146 951.03001669 584.16857589 1040.9921875 954.16796875 C1041.05157706 955.17745339 1041.05157706 955.17745339 1041.1121664 956.20733166 C1041.84196886 968.87132998 1042.15482244 981.49216827 1042.16015625 994.17578125 C1042.16338892 996.03872704 1042.16675429 997.90167259 1042.17024231 999.76461792 C1042.17617192 1003.64533066 1042.1780889 1007.52602135 1042.17749023 1011.40673828 C1042.17740946 1015.3058745 1042.18428555 1019.20489202 1042.19799805 1023.10400391 C1042.28252008 1047.53888678 1041.84066164 1071.79873576 1039.9921875 1096.16796875 C1039.88216904 1097.66716858 1039.88216904 1097.66716858 1039.76992798 1099.19665527 C1039.34763347 1104.88151038 1038.85570104 1110.55671549 1038.3046875 1116.23046875 C1038.22392975 1117.07363647 1038.143172 1117.9168042 1038.05996704 1118.78552246 C1030.05838135 1201.25685238 1011.71979424 1282.75570053 879.18505859 1572.37353516 C878.00545547 1574.14800977 876.83590332 1575.92876679 875.66796875 1577.7109375 C852.98334956 1612.18645888 828.19401566 1645.17074073 801.38232422 1676.53955078 C799.92684739 1678.24450871 798.47692697 1679.95409205 797.02734375 1681.6640625 C791.72865885 1687.89881424 786.3504235 1694.0376935 780.79174805 1700.04223633 C778.24510896 1702.79323821 775.74884775 1705.57566475 773.3046875 1708.41796875 C770.41762784 1711.75290163 767.35232381 1714.8547337 764.1796875 1717.91796875 C762.39229307 1719.75643159 760.74258565 1721.62076446 759.08203125 1723.5703125 C754.11672587 1729.28444891 748.72739039 1734.582016 743.36791992 1739.92260742 C741.55857817 1741.7265896 739.75464431 1743.5358554 737.95117188 1745.34570312 C732.62082151 1750.67880615 727.29064886 1755.93924066 721.54663086 1760.83178711 C719.59016571 1762.51354206 717.78358462 1764.31259316 715.9921875 1766.16796875 C712.8210272 1769.38231606 709.53635997 1772.38547838 706.11328125 1775.328125 C703.76727692 1777.36305694 701.474823 1779.45087842 699.1796875 1781.54296875 C694.90908599 1785.39819261 690.50445081 1789.0437939 686.03125 1792.66015625 C682.52160139 1795.55629302 679.10214158 1798.54492701 675.6796875 1801.54296875 C669.25123506 1807.15306281 662.65338443 1812.4826426 655.89794922 1817.69189453 C653.83891465 1819.28668354 651.7918986 1820.89609166 649.74609375 1822.5078125 C640.0571975 1830.12460906 630.21245758 1837.47796032 620.16845703 1844.61962891 C618.08359353 1846.10293655 616.0043123 1847.59377525 613.92578125 1849.0859375 C539.82301025 1902.06892636 457.99158036 1945.20579794 87.9921875 2035.16796875 C87.31919774 2035.20756179 86.64620798 2035.24715483 85.95282459 2035.28794765 C73.28882627 2036.01775011 60.66798798 2036.33060369 47.984375 2036.3359375 C46.12142921 2036.33917017 44.25848366 2036.34253554 42.39553833 2036.34602356 C38.51482559 2036.35195317 34.6341349 2036.35387015 30.75341797 2036.35327148 C26.85428175 2036.35319071 22.95526423 2036.3600668 19.05615234 2036.3737793 C-5.37873053 2036.45830133 -29.63857951 2036.01644289 -54.0078125 2034.16796875 C-55.50701233 2034.05795029 -55.50701233 2034.05795029 -57.03649902 2033.94570923 C-62.72135413 2033.52341472 -68.39655924 2033.03148229 -74.0703125 2032.48046875 C-74.91348022 2032.399711 -75.75664795 2032.31895325 -76.62536621 2032.23574829 C-159.09669613 2024.2341626 -240.59554428 2005.89557549 -530.21337891 1873.36083984 C-531.98785352 1872.18123672 -533.76861054 1871.01168457 -535.55078125 1869.84375 C-570.02630263 1847.15913081 -603.01058448 1822.36979691 -634.37939453 1795.55810547 C-636.08435246 1794.10262864 -637.7939358 1792.65270822 -639.50390625 1791.203125 C-645.73865799 1785.9044401 -651.87753725 1780.52620475 -657.88208008 1774.9675293 C-660.63308196 1772.42089021 -663.4155085 1769.924629 -666.2578125 1767.48046875 C-669.59274538 1764.59340909 -672.69457745 1761.52810506 -675.7578125 1758.35546875 C-677.586439 1756.57763743 -679.43891899 1754.93932985 -681.37890625 1753.2890625 C-687.25529642 1748.18276653 -692.69711298 1742.62770941 -698.18969727 1737.11645508 C-700.06610725 1735.23468601 -701.94780219 1733.35832137 -703.83007812 1731.48242188 C-714.73394469 1720.58397051 -714.73394469 1720.58397051 -719.62475586 1714.76538086 C-721.17314558 1712.97701123 -722.8192766 1711.32390554 -724.5078125 1709.66796875 C-727.54376175 1706.67924538 -730.35289909 1703.55090396 -733.1328125 1700.32421875 C-735.18140344 1697.96833917 -737.27984252 1695.66289415 -739.3828125 1693.35546875 C-743.23803636 1689.08486724 -746.88363765 1684.68023206 -750.5 1680.20703125 C-753.39613677 1676.69738264 -756.38477076 1673.27792283 -759.3828125 1669.85546875 C-764.99290656 1663.42701631 -770.32248635 1656.82916568 -775.53173828 1650.07373047 C-777.12652729 1648.0146959 -778.73593541 1645.96767985 -780.34765625 1643.921875 C-787.96445281 1634.23297875 -795.31780407 1624.38823883 -802.45947266 1614.34423828 C-803.9427803 1612.25937478 -805.433619 1610.18009355 -806.92578125 1608.1015625 C-859.90877011 1533.9987915 -903.04564169 1452.16736161 -993.0078125 1082.16796875 C-993.04740554 1081.49497899 -993.08699858 1080.82198923 -993.1277914 1080.12860584 C-993.85759386 1067.46460752 -994.17044744 1054.84376923 -994.17578125 1042.16015625 C-994.17901392 1040.29721046 -994.18237929 1038.43426491 -994.18586731 1036.57131958 C-994.19179692 1032.69060684 -994.1937139 1028.80991615 -994.19311523 1024.92919922 C-994.19303446 1021.030063 -994.19991055 1017.13104548 -994.21362305 1013.23193359 C-994.29814508 988.79705072 -993.85628664 964.53720174 -992.0078125 940.16796875 C-991.89779404 938.66876892 -991.89779404 938.66876892 -991.78555298 937.13928223 C-991.36325847 931.45442712 -990.87132604 925.77922201 -990.3203125 920.10546875 C-990.23955475 919.26230103 -990.158797 918.4191333 -990.07559204 917.55041504 C-982.07400635 835.07908512 -963.73541924 753.58023697 -830.0078125 462.16796875 C-829.17419765 460.90513371 -828.34086621 459.64211153 -827.5078125 458.37890625 C-813.42837433 437.08804853 -798.66474229 416.3293528 -783.0078125 396.16796875 C-782.51506836 395.53342773 -782.02232422 394.89888672 -781.51464844 394.24511719 C-772.4278742 382.56735958 -763.05564545 371.14157272 -753.46240234 359.87695312 C-752.48241948 358.72558017 -751.50360105 357.57321521 -750.52587891 356.41992188 C-744.74037733 349.59570692 -738.88554852 342.85941368 -732.80737305 336.29370117 C-730.26073396 333.54269929 -727.76447275 330.76027275 -725.3203125 327.91796875 C-722.43325284 324.58303587 -719.36794881 321.4812038 -716.1953125 318.41796875 C-714.41748118 316.58934225 -712.7791736 314.73686226 -711.12890625 312.796875 C-706.02261028 306.92048483 -700.46755316 301.47866827 -694.95629883 295.98608398 C-693.07452976 294.109674 -691.19816512 292.22797906 -689.32226562 290.34570312 C-678.42381426 279.44183656 -678.42381426 279.44183656 -672.60522461 274.55102539 C-670.81685498 273.00263567 -669.16374929 271.35650465 -667.5078125 269.66796875 C-664.51908913 266.6320195 -661.39074771 263.82288216 -658.1640625 261.04296875 C-655.80818292 258.99437781 -653.5027379 256.89593873 -651.1953125 254.79296875 C-646.92471099 250.93774489 -642.52007581 247.2921436 -638.046875 243.67578125 C-634.53722639 240.77964448 -631.11776658 237.79101049 -627.6953125 234.79296875 C-621.26686006 229.18287469 -614.66900943 223.8532949 -607.91357422 218.64404297 C-605.85453965 217.04925396 -603.8075236 215.43984584 -601.76171875 213.828125 C-592.0728225 206.21132844 -582.22808258 198.85797718 -572.18408203 191.71630859 C-570.09921853 190.23300095 -568.0199373 188.74216225 -565.94140625 187.25 C-491.83863525 134.26701114 -410.00720536 91.13013956 -40.0078125 1.16796875 C-39.33482274 1.12837571 -38.66183298 1.08878267 -37.96844959 1.04798985 C-25.30445127 0.31818739 -12.68361298 0.00533381 0 0 Z M-99.48828125 39.48046875 C-104.81807851 40.31904502 -110.17030446 40.89611587 -115.5378418 41.43383789 C-127.9736599 42.71883703 -140.28072421 45.0387359 -152.5703125 47.29296875 C-153.38618835 47.44247986 -154.20206421 47.59199097 -155.04266357 47.74603271 C-185.9674403 53.4422884 -216.712137 60.35818102 -246.88183594 69.24755859 C-249.08967148 69.89763201 -251.29878378 70.54337672 -253.50878906 71.18603516 C-287.29179383 81.03465482 -320.57742046 92.48478772 -353.0078125 106.16796875 C-353.64744934 106.43782593 -354.28708618 106.70768311 -354.94610596 106.98571777 C-373.74356283 114.93623725 -392.2440345 123.43180795 -410.546875 132.4609375 C-413.95675609 134.1427863 -417.372666 135.81190387 -420.7890625 137.48046875 C-434.25372678 144.09449875 -447.40219932 151.13412714 -460.38378906 158.65087891 C-462.83325604 160.06704822 -465.28995185 161.46950343 -467.75 162.8671875 C-507.40578998 185.47327123 -544.8853223 211.30437986 -581.0078125 239.16796875 C-581.69423828 239.69696777 -582.38066406 240.2259668 -583.08789062 240.77099609 C-590.52565573 246.51714642 -597.77792238 252.44376599 -604.921875 258.55078125 C-607.76386815 260.97488631 -610.66071315 263.32528274 -613.5703125 265.66796875 C-618.64388743 269.79487081 -623.44522392 274.16899433 -628.23828125 278.61328125 C-630.46699643 280.66910597 -632.71549169 282.68413832 -635.0078125 284.66796875 C-640.44196791 289.39090546 -645.72569036 294.2767325 -651.0078125 299.16796875 C-651.60674316 299.72033203 -652.20567383 300.27269531 -652.82275391 300.84179688 C-662.28916555 309.58753976 -671.51009262 318.56632917 -680.6328125 327.66796875 C-681.14791382 328.18048187 -681.66301514 328.692995 -682.19372559 329.22103882 C-687.44768624 334.45411711 -692.61777255 339.71773116 -697.44287109 345.35351562 C-700.04542162 348.37101258 -702.78264845 351.26156547 -705.5078125 354.16796875 C-710.09988582 359.0931963 -714.62723818 364.05270692 -719.0078125 369.16796875 C-719.93079905 370.23714368 -720.85399632 371.30613671 -721.77734375 372.375 C-727.96567341 379.55156499 -734.03813188 386.80795534 -740.0078125 394.16796875 C-741.01502884 395.39371928 -742.02288326 396.61894567 -743.03125 397.84375 C-750.06712574 406.41105056 -756.85405156 415.12458098 -763.43798828 424.04345703 C-765.07943244 426.26489515 -766.72881921 428.48028839 -768.37890625 430.6953125 C-786.03174251 454.44788722 -802.55123343 478.92951378 -818.0078125 504.16796875 C-818.45125 504.88887695 -818.8946875 505.60978516 -819.3515625 506.35253906 C-832.31020607 527.47332828 -844.24044987 549.20503873 -855.52197266 571.26367188 C-856.52554921 573.22531279 -857.53314019 575.18490434 -858.54443359 577.14257812 C-873.6317063 606.38737564 -886.33526316 636.63996497 -898.27337646 667.28497314 C-898.94973403 669.01906334 -899.63019283 670.75155243 -900.31103516 672.48388672 C-921.19953179 725.78527101 -935.83965282 781.89149437 -946.0078125 838.16796875 C-946.2582592 839.52662773 -946.50924484 840.88518746 -946.76074219 842.24365234 C-952.98720656 875.97519906 -957.07654969 910.00503224 -959.69921875 944.20117188 C-959.89731311 946.74756204 -960.10482955 949.29324671 -960.32421875 951.83789062 C-964.07600363 995.55330807 -962.87236161 1040.21867985 -960.14385986 1083.96514893 C-960.01257084 1086.09092384 -959.88761951 1088.21696303 -959.76513672 1090.34326172 C-958.37020296 1114.27629723 -955.85058169 1137.9388288 -951.90625 1161.5859375 C-951.15963552 1166.10727122 -950.57164835 1170.61337981 -950.0703125 1175.16796875 C-948.74974559 1186.28853221 -946.2904926 1197.21309065 -944.0078125 1208.16796875 C-943.58680024 1210.21214915 -943.16621793 1212.25641815 -942.74609375 1214.30078125 C-941.7188145 1219.28492798 -940.67578207 1224.26559371 -939.62402344 1229.24462891 C-939.21854117 1231.1682599 -938.81547948 1233.09240298 -938.41503906 1235.01708984 C-933.47656194 1258.73574908 -927.34921009 1282.0814956 -920.0078125 1305.16796875 C-919.54656224 1306.62820784 -919.08547227 1308.08849756 -918.62451172 1309.54882812 C-911.41452093 1332.34932123 -903.80353232 1354.92735317 -895.0078125 1377.16796875 C-894.74160095 1377.84156433 -894.4753894 1378.51515991 -894.20111084 1379.20916748 C-877.95954339 1420.20381616 -859.55588128 1460.49910698 -837.43798828 1498.67480469 C-835.67190147 1501.75354804 -833.96701892 1504.86313291 -832.26757812 1507.97900391 C-821.80280855 1527.11177797 -810.02076142 1545.33725298 -797.9453125 1563.48046875 C-797.35502258 1564.36903564 -796.76473267 1565.25760254 -796.15655518 1566.1730957 C-785.55218991 1582.11513985 -774.54592193 1597.72994698 -762.8828125 1612.91796875 C-762.21032471 1613.79646484 -761.53783691 1614.67496094 -760.8449707 1615.58007812 C-758.90323574 1618.11247342 -756.95686746 1620.64120456 -755.0078125 1623.16796875 C-754.47881348 1623.85439453 -753.94981445 1624.54082031 -753.40478516 1625.24804688 C-747.65863483 1632.68581198 -741.73201526 1639.93807863 -735.625 1647.08203125 C-733.20089494 1649.9240244 -730.85049851 1652.8208694 -728.5078125 1655.73046875 C-724.38091044 1660.80404368 -720.00678692 1665.60538017 -715.5625 1670.3984375 C-713.50667528 1672.62715268 -711.49164293 1674.87564794 -709.5078125 1677.16796875 C-704.78496602 1682.60202035 -699.90160178 1687.88832581 -695.0078125 1693.16796875 C-694.4288623 1693.79348633 -693.84991211 1694.41900391 -693.25341797 1695.06347656 C-685.31763159 1703.61941048 -677.24638024 1712.02778856 -669.0078125 1720.29296875 C-668.23115234 1721.07422119 -667.45449219 1721.85547363 -666.65429688 1722.66040039 C-662.48304945 1726.82043961 -658.21764713 1730.79623709 -653.75390625 1734.64013672 C-651.5676133 1736.55314305 -649.53017245 1738.58338234 -647.5078125 1740.66796875 C-644.17660443 1744.0389694 -640.75669622 1747.21310905 -637.16015625 1750.296875 C-634.62729088 1752.49876704 -632.16448728 1754.76992701 -629.6953125 1757.04296875 C-625.23258418 1761.11336931 -620.6452325 1764.96973784 -615.9453125 1768.76171875 C-612.6442658 1771.46576764 -609.42046133 1774.24941352 -606.1953125 1777.04296875 C-599.92240256 1782.45415424 -593.48156068 1787.60787935 -586.9296875 1792.67578125 C-584.86517391 1794.2787166 -582.81098774 1795.89428933 -580.7578125 1797.51171875 C-570.36790765 1805.67830697 -559.78636997 1813.52305538 -549.0078125 1821.16796875 C-548.22712402 1821.72452148 -547.44643555 1822.28107422 -546.64208984 1822.85449219 C-528.21916588 1835.97469764 -509.2948934 1848.35614068 -490.0078125 1860.16796875 C-489.2869043 1860.61140625 -488.56599609 1861.05484375 -487.82324219 1861.51171875 C-466.70245297 1874.47036232 -444.97074252 1886.40060612 -422.91210938 1897.68212891 C-420.95046846 1898.68570546 -418.99087691 1899.69329644 -417.03320312 1900.70458984 C-387.78840561 1915.79186255 -357.53581628 1928.49541941 -326.89080811 1940.43353271 C-325.15671791 1941.10989028 -323.42422882 1941.79034908 -321.69189453 1942.47119141 C-269.74022649 1962.83074224 -214.46348864 1978.2832797 -159.45849609 1987.57617188 C-156.33778758 1988.11137758 -153.22237763 1988.67091746 -150.10784912 1989.24085999 C-121.09150996 1994.54389454 -91.88380774 1998.21873574 -62.5078125 2000.85546875 C-61.3211499 2000.96270264 -60.1344873 2001.06993652 -58.91186523 2001.18041992 C-55.5208199 2001.46729405 -52.12985079 2001.72960698 -48.73544312 2001.97244263 C-46.72267218 2002.1167251 -44.7102008 2002.26520079 -42.69790649 2002.41598511 C-20.51737934 2004.04968197 1.55170749 2004.45403831 23.78662109 2004.36358643 C27.17200522 2004.35267271 30.55735035 2004.35316528 33.94274902 2004.35359287 C50.6469541 2004.35308322 67.31938977 2004.31378219 83.9921875 2003.16796875 C85.09054932 2003.10037354 86.18891113 2003.03277832 87.32055664 2002.96313477 C114.22183625 2001.24856711 141.20771667 1998.58160731 167.78125 1994.03515625 C172.26040992 1993.27002709 176.72739569 1992.6816277 181.2421875 1992.16796875 C199.22288342 1990.01325726 216.93635474 1985.74336884 234.61181641 1981.8984375 C237.71942228 1981.22691094 240.82950218 1980.56923644 243.94140625 1979.91796875 C266.61004908 1975.14593182 288.91938547 1969.18702335 310.9921875 1962.16796875 C312.45242659 1961.70671849 313.91271631 1961.24562852 315.37304688 1960.78466797 C338.17353998 1953.57467718 360.75157192 1945.96368857 382.9921875 1937.16796875 C383.66578308 1936.9017572 384.33937866 1936.63554565 385.03338623 1936.36126709 C426.02803491 1920.11969964 466.32332573 1901.71603753 504.49902344 1879.59814453 C507.57776679 1877.83205772 510.68735166 1876.12717517 513.80322266 1874.42773438 C532.93599672 1863.9629648 551.16147173 1852.18091767 569.3046875 1840.10546875 C570.19325439 1839.51517883 571.08182129 1838.92488892 571.99731445 1838.31671143 C587.9393586 1827.71234616 603.55416573 1816.70607818 618.7421875 1805.04296875 C619.62068359 1804.37048096 620.49917969 1803.69799316 621.40429688 1803.00512695 C623.93669217 1801.06339199 626.46542331 1799.11702371 628.9921875 1797.16796875 C629.67861328 1796.63896973 630.36503906 1796.1099707 631.07226562 1795.56494141 C638.51003073 1789.81879108 645.76229738 1783.89217151 652.90625 1777.78515625 C655.74824315 1775.36105119 658.64508815 1773.01065476 661.5546875 1770.66796875 C666.62826243 1766.54106669 671.42959892 1762.16694317 676.22265625 1757.72265625 C678.45137143 1755.66683153 680.69986669 1753.65179918 682.9921875 1751.66796875 C688.4262391 1746.94512227 693.71254456 1742.06175803 698.9921875 1737.16796875 C699.93046387 1736.29954346 699.93046387 1736.29954346 700.88769531 1735.41357422 C709.44362923 1727.47778784 717.85200731 1719.40653649 726.1171875 1711.16796875 C726.89843994 1710.39130859 727.67969238 1709.61464844 728.48461914 1708.81445312 C732.64465836 1704.6432057 736.62045584 1700.37780338 740.46435547 1695.9140625 C742.3773618 1693.72776955 744.40760109 1691.6903287 746.4921875 1689.66796875 C749.86318815 1686.33676068 753.0373278 1682.91685247 756.12109375 1679.3203125 C758.32298579 1676.78744713 760.59414576 1674.32464353 762.8671875 1671.85546875 C766.93758806 1667.39274043 770.79395659 1662.80538875 774.5859375 1658.10546875 C777.28998639 1654.80442205 780.07363227 1651.58061758 782.8671875 1648.35546875 C788.27837299 1642.08255881 793.4320981 1635.64171693 798.5 1629.08984375 C800.10293535 1627.02533016 801.71850808 1624.97114399 803.3359375 1622.91796875 C811.50252572 1612.5280639 819.34727413 1601.94652622 826.9921875 1591.16796875 C827.54874023 1590.38728027 828.10529297 1589.6065918 828.67871094 1588.80224609 C876.10139054 1522.21301287 914.17190575 1450.06711113 944.20892334 1374.14605713 C944.90436015 1372.38977166 945.60352294 1370.63496259 946.30322266 1368.88037109 C954.57815151 1348.02557595 961.25464659 1326.55764094 967.9921875 1305.16796875 C968.23729065 1304.38987854 968.4823938 1303.61178833 968.73492432 1302.81011963 C983.66581933 1255.24624385 992.97514578 1206.53530757 1000.65234375 1157.34326172 C1000.94184254 1155.49021991 1001.23428368 1153.63763817 1001.52734375 1151.78515625 C1004.66460312 1131.7180017 1006.29130305 1111.39810398 1007.9921875 1091.16796875 C1008.08787018 1090.03868958 1008.08787018 1090.03868958 1008.18548584 1088.88659668 C1013.49326307 1025.36314769 1012.62134234 957.72573412 1002.6796875 894.6875 C1001.84111123 889.35770274 1001.26404038 884.00547679 1000.72631836 878.63793945 C999.44131922 866.20212135 997.12142035 853.89505704 994.8671875 841.60546875 C994.71767639 840.7895929 994.56816528 839.97371704 994.41412354 839.13311768 C988.71786785 808.20834095 981.80197523 777.46364425 972.91259766 747.29394531 C972.26252424 745.08610977 971.61677953 742.87699747 970.97412109 740.66699219 C961.12550143 706.88398742 949.67536853 673.59836079 935.9921875 641.16796875 C935.72233032 640.52833191 935.45247314 639.88869507 935.17443848 639.22967529 C927.223919 620.43221842 918.7283483 601.93174675 909.69921875 583.62890625 C908.01736995 580.21902516 906.34825238 576.80311525 904.6796875 573.38671875 C898.0656575 559.92205447 891.02602911 546.77358193 883.50927734 533.79199219 C882.09310803 531.34252521 880.69065282 528.8858294 879.29296875 526.42578125 C856.68688502 486.76999127 830.85577639 449.29045895 802.9921875 413.16796875 C802.46318848 412.48154297 801.93418945 411.79511719 801.38916016 411.08789062 C795.64300983 403.65012552 789.71639026 396.39785887 783.609375 389.25390625 C781.18526994 386.4119131 778.83487351 383.5150681 776.4921875 380.60546875 C772.36528544 375.53189382 767.99116192 370.73055733 763.546875 365.9375 C761.49105028 363.70878482 759.47601793 361.46028956 757.4921875 359.16796875 C752.76934102 353.73391715 747.88597678 348.44761169 742.9921875 343.16796875 C742.4132373 342.54245117 741.83428711 341.91693359 741.23779297 341.27246094 C733.30200659 332.71652702 725.23075524 324.30814894 716.9921875 316.04296875 C716.21552734 315.26171631 715.43886719 314.48046387 714.63867188 313.67553711 C710.46742445 309.51549789 706.20202213 305.53970041 701.73828125 301.69580078 C699.5519883 299.78279445 697.51454745 297.75255516 695.4921875 295.66796875 C692.16097943 292.2969681 688.74107122 289.12282845 685.14453125 286.0390625 C682.61166588 283.83717046 680.14886228 281.56601049 677.6796875 279.29296875 C673.21695918 275.22256819 668.6296075 271.36619966 663.9296875 267.57421875 C660.6286408 264.87016986 657.40483633 262.08652398 654.1796875 259.29296875 C647.90677756 253.88178326 641.46593568 248.72805815 634.9140625 243.66015625 C632.84954891 242.0572209 630.79536274 240.44164817 628.7421875 238.82421875 C618.35228265 230.65763053 607.77074497 222.81288212 596.9921875 215.16796875 C596.21149902 214.61141602 595.43081055 214.05486328 594.62646484 213.48144531 C528.03723162 166.05876571 455.89132988 127.9882505 379.97027588 97.95123291 C378.21399041 97.2557961 376.45918134 96.55663331 374.70458984 95.85693359 C353.8497947 87.58200474 332.38185969 80.90550966 310.9921875 74.16796875 C310.21409729 73.9228656 309.43600708 73.67776245 308.63433838 73.42523193 C267.16599941 60.4078021 224.78788051 51.50207488 181.9296875 44.48046875 C181.04628693 44.33558014 180.16288635 44.19069153 179.25271606 44.04141235 C158.62371004 40.67460492 138.00877482 37.88288179 117.1796875 36.10546875 C115.71279984 35.97948303 115.71279984 35.97948303 114.21627808 35.85095215 C108.33535192 35.3480701 102.45330741 34.86031706 96.57043457 34.38079834 C94.28558059 34.19218781 92.00159155 33.99610353 89.71777344 33.79541016 C27.94525713 28.47950928 -38.20245605 29.8151834 -99.48828125 39.48046875 Z " fill="#FFFEFE" transform="translate(994.0078125,-0.16796875)"/>
<path d="M0 0 C7.26 0 14.52 0 22 0 C22 9.9 22 19.8 22 30 C31.9 30 41.8 30 52 30 C52 37.26 52 44.52 52 52 C42.1 52 32.2 52 22 52 C21.979375 56.16625 21.95875 60.3325 21.9375 64.625 C21.907771 65.92775879 21.87804199 67.23051758 21.84741211 68.57275391 C21.81257407 74.86803712 21.81257407 74.86803712 24.95385742 80.01660156 C27.24724858 81.48777195 29.58947215 82.73453349 32 84 C37.82185836 90.43299266 40.51168226 97.64614396 40.31640625 106.27734375 C39.43556813 113.85690138 36.5848991 120.7874275 31 126 C28.07988563 127.84842257 25.08507792 129.44852217 22 131 C22.59218857 138.64393581 23.86957608 146.05037911 25.375 153.5625 C25.82921942 155.86957647 26.28234395 158.17686876 26.734375 160.484375 C26.95287109 161.59876953 27.17136719 162.71316406 27.39648438 163.86132812 C28.42343927 169.20215829 29.33343101 174.56119278 30.2265625 179.92578125 C36.01265454 211.90769635 48.42399914 242.92451507 60.46414185 273.00561523 C61.18183828 274.79886924 61.89670456 276.59325922 62.60836792 278.38891602 C66.39216207 287.90888583 70.43540481 297.2020905 75.18359375 306.28515625 C75.58171768 307.04886536 75.97984161 307.81257446 76.39002991 308.59942627 C84.98103214 324.62957567 96.72315695 336.5457101 113.9140625 343.11328125 C127.41786038 346.99348646 140.79022128 342.16768663 152.6315918 335.82470703 C159.87665739 331.73373976 165.94844321 326.67015615 172 321 C173.10214844 320.00033203 173.10214844 320.00033203 174.2265625 318.98046875 C186.05401084 307.78915807 194.79070657 293.23561407 203.98046875 279.92041016 C206.47648527 276.31096267 208.98741698 272.71218754 211.50488281 269.11767578 C212.65789544 267.47074532 213.80833678 265.82201136 214.95605469 264.17138672 C217.78092862 260.11748793 220.64834076 256.10812544 223.609375 252.15234375 C224.18010742 251.37874512 224.75083984 250.60514648 225.33886719 249.80810547 C226.4180865 248.34916084 227.51180387 246.90079091 228.62207031 245.46533203 C229.9383292 243.672989 231.09468253 242.03087938 232 240 C231.32850475 236.46713318 229.54580038 234.29284259 227.375 231.5 C223.50389228 225.4528258 224.16723953 218.46595437 225.44140625 211.6328125 C227.36677849 205.40865317 231.68589768 201.01702098 237.17578125 197.67578125 C243.90909181 194.3614574 249.39993903 194.10106145 256.5625 196.125 C263.25499274 198.62460572 267.42534988 202.48958803 270.9375 208.6875 C273.82605689 215.08838853 274.3094369 221.00246797 272.11328125 227.70703125 C268.84136943 234.95741393 264.3578127 239.83871056 256.9375 242.8125 C253.68480683 243.94716041 250.39976662 244.47436232 247 245 C242.374792 264.20229709 238.96113448 283.46621056 235.95901489 302.977005 C235.33302141 307.01493369 234.62138955 311.0231765 233.828125 315.03125 C230.31873693 334.03532581 236.23306907 354.86505601 246.51953125 370.86328125 C247.00808594 371.56839844 247.49664063 372.27351563 248 373 C248.65548828 373.94939453 248.65548828 373.94939453 249.32421875 374.91796875 C255.79572159 383.31794235 266.33454182 389.01691464 276.734375 390.55078125 C303.71848916 393.66134196 329.65405124 383.32769623 350.6875 366.6875 C355.22398684 362.83283633 359.45386811 358.7009104 363.59057617 354.42456055 C368.11631337 349.76049939 373.01458705 345.56138909 377.9440918 341.33203125 C388.95361202 331.72168141 395.20158892 321.80229892 401.328125 308.60546875 C408.34381977 293.5177103 420.14906557 277.48868661 436 271 C438.359375 270.8046875 438.359375 270.8046875 440.75 270.875 C441.54921875 270.89304687 442.3484375 270.91109375 443.171875 270.9296875 C444.07679688 270.96449219 444.07679688 270.96449219 445 271 C446.37295707 283.08202219 438.0787795 293.93023264 431 303 C423.10863286 312.84074665 414.77756311 322.26420248 404.875 330.125 C350.59097998 373.9464575 322.34066997 449.5461447 298 513 C297.65420898 513.89332031 297.30841797 514.78664063 296.95214844 515.70703125 C292.4682236 527.31937196 288.56598974 539.13273797 284.625 550.9375 C284.35348114 551.75078766 284.08196228 552.56407532 283.80221558 553.40200806 C283.02478117 555.73472419 282.25003541 558.0683114 281.4765625 560.40234375 C281.24148483 561.10880035 281.00640717 561.81525696 280.76420593 562.54312134 C279.73080837 565.67304987 278.72806355 568.783442 278 572 C271.68645751 570.78660591 265.41400787 569.43189165 259.14453125 568.01171875 C239.21972225 563.51261983 219.3780541 559.43563627 199.16210938 556.47021484 C196.43107305 556.06410181 193.7076242 555.63058848 190.984375 555.17578125 C174.11296965 552.4018346 157.05098651 550.908019 140.04553223 549.20635986 C137.36029011 548.93546401 134.67630846 548.65285494 131.9921875 548.37109375 C99.93976587 545.11412718 67.77999859 544.69126252 35.59368896 544.80438232 C31.70953718 544.81523168 27.82541987 544.81479837 23.94125557 544.814394 C-9.34990578 544.8150718 -42.49550769 545.63262927 -75.71533203 547.86462402 C-78.49251308 548.04940287 -81.27012512 548.22720971 -84.0477562 548.40507507 C-87.40186834 548.62061307 -90.75560757 548.84166116 -94.109375 549.0625 C-95.33622009 549.14169678 -96.56306519 549.22089355 -97.8270874 549.30249023 C-98.96148254 549.37927002 -100.09587769 549.4560498 -101.26464844 549.53515625 C-102.25543396 549.600979 -103.24621948 549.66680176 -104.26702881 549.73461914 C-106.90263753 549.99054577 -109.40855553 550.4680331 -112 551 C-115.37246384 551.24878832 -118.74025728 551.43724529 -122.1171875 551.60546875 C-125.84721986 551.80956486 -129.34636547 552.26818083 -133 553 C-136.26583739 553.34883143 -139.53935408 553.6047376 -142.8125 553.875 C-158.70946292 555.26099149 -174.54131875 557.12786294 -190.26123047 559.88574219 C-194.90055034 560.68805361 -199.53461534 561.3225838 -204.21020508 561.87207031 C-219.40843185 563.67107251 -234.40156601 566.55091763 -249.43310547 569.39526367 C-250.86100403 569.66239418 -250.86100403 569.66239418 -252.31774902 569.93492126 C-254.13468637 570.27505118 -255.9507299 570.61999826 -257.76574707 570.9702301 C-259.83625424 571.35657137 -261.91747312 571.68481545 -264 572 C-265.79037062 570.20962938 -265.43739729 567.3659166 -265.6875 564.9375 C-271.64564244 516.62807719 -296.93187756 471.59429087 -318.6315918 428.73852539 C-319.4896585 427.02132036 -320.32998959 425.29501263 -321.14379883 423.55639648 C-324.86552131 415.70032053 -329.7074581 408.61962721 -334.5625 401.4375 C-335.46711724 400.09098084 -336.37149366 398.74429985 -337.27563477 397.39746094 C-343.71026685 387.83079369 -350.2546195 378.35054131 -357 369 C-358.04051409 367.54958641 -359.08087305 366.09906152 -360.12109375 364.6484375 C-362.83036151 360.87630316 -365.55741053 357.11740467 -368.28955078 353.36181641 C-370.08835213 350.87800192 -371.87054231 348.38275037 -373.65234375 345.88671875 C-374.87199689 344.1950248 -376.09203907 342.50361127 -377.3125 340.8125 C-377.86276855 340.03471191 -378.41303711 339.25692383 -378.97998047 338.45556641 C-383.86530664 331.73002769 -389.60930649 326.75002082 -396.25 321.8125 C-410.63475151 310.69026945 -425.81202633 294.35992613 -432 277 C-432.25 273.8125 -432.25 273.8125 -432 271 C-430 269 -430 269 -427.0625 268.9375 C-416.40775493 270.91466919 -407.88350909 280.39233057 -400.39941406 287.65185547 C-399.24070452 288.76811403 -398.05700542 289.85836687 -396.8671875 290.94140625 C-387.2300552 299.90869304 -380.28567347 313.76881182 -376.6875 326.375 C-374.34984334 331.39663282 -370.79616105 334.10461716 -366.59960938 337.62207031 C-363.47463483 340.31397452 -360.50159694 343.17231048 -357.5 346 C-356.19585566 347.21672828 -354.89117793 348.43288512 -353.5859375 349.6484375 C-351.51559014 351.57867807 -349.4584595 353.51863547 -347.4140625 355.4765625 C-341.27471299 361.23875061 -334.56228024 365.95840435 -327.65625 370.73828125 C-321.92401732 374.71886276 -316.3412331 378.8999636 -310.77172852 383.10424805 C-302.82711141 389.03344215 -294.66411753 394.08061545 -285.4375 397.75 C-284.695 398.04656494 -283.9525 398.34312988 -283.1875 398.64868164 C-271.17718249 403.3543937 -257.59473466 405.50902822 -245 401.5 C-232.98822833 396.1937408 -227.72646154 386.66994386 -223 375 C-221.69744778 371.35750574 -220.78775205 367.78160854 -220 364 C-219.8244458 363.18281494 -219.6488916 362.36562988 -219.46801758 361.52368164 C-217.66799338 352.09699018 -217.55798797 342.75074191 -217.5625 333.1875 C-217.56189575 331.86884949 -217.56189575 331.86884949 -217.5612793 330.52355957 C-217.60558942 313.61160626 -219.47577136 297.56726649 -223 281 C-223.16405334 280.22416565 -223.32810669 279.4483313 -223.49713135 278.64898682 C-225.88164728 267.40579592 -228.3932409 256.19361594 -231 245 C-231.89187012 244.8302063 -231.89187012 244.8302063 -232.80175781 244.65698242 C-240.70923975 243.04670524 -246.90676751 240.11277925 -251.9375 233.5625 C-255.70609117 227.62372012 -257.06290847 220.93152011 -256 214 C-253.5067953 206.09678316 -248.99753345 201.27073661 -242 197 C-236.56263978 194.44776969 -231.17192459 194.0605292 -225.44140625 195.7578125 C-217.88530142 198.60959649 -212.74248003 201.95159403 -208.95703125 209.24609375 C-206.34576092 216.76015735 -206.94544265 224.66901662 -210.3125 231.8125 C-212.49601594 235.83200531 -212.49601594 235.83200531 -216 237 C-212.07372144 242.97485543 -208.1447715 248.94794807 -204.21411133 254.91992188 C-202.88214081 256.94427317 -201.5507433 258.96900163 -200.2199707 260.99414062 C-193.82271516 270.7285709 -187.4249459 280.46149333 -180.83984375 290.0703125 C-180.41245407 290.69566895 -179.98506439 291.32102539 -179.54472351 291.96533203 C-175.67263664 297.57809869 -171.46155062 302.84032905 -167 308 C-166.28328125 308.83917969 -165.5665625 309.67835938 -164.828125 310.54296875 C-151.74667783 325.50313439 -133.81272396 341.69495467 -112.9609375 343.22265625 C-98.94543413 343.60012297 -87.41358619 338.93869033 -76.8125 329.75 C-54.67833112 308.73477805 -44.64555944 277.0231642 -33.86566162 249.22351074 C-32.94614991 246.86168238 -32.01795905 244.50339061 -31.08837891 242.14550781 C-20.18986329 214.65590307 -20.18986329 214.65590307 -13.46386719 185.93164062 C-12.75871038 181.47504957 -11.94504169 177.03870239 -11.14599609 172.59814453 C-10.71991882 170.22492954 -10.29826923 167.85091477 -9.88134766 165.47607422 C-8.46303841 157.4149938 -6.91584916 149.3885601 -5.25 141.375 C-4.93385742 139.84552734 -4.93385742 139.84552734 -4.61132812 138.28515625 C-3.12919595 131.2583919 -3.12919595 131.2583919 -2 129 C-2.70125 128.814375 -3.4025 128.62875 -4.125 128.4375 C-10.54990876 125.22504562 -13.92628546 119.26744368 -16.3046875 112.671875 C-18.50706543 104.20880474 -17.20549706 96.59577468 -13 89 C-10.56823277 85.46227836 -8.36105622 82.64781291 -4.44042969 80.78173828 C-1.74065894 79.21374823 -1.74065894 79.21374823 -1.34057617 76.27270508 C-1.32486572 75.19915771 -1.30915527 74.12561035 -1.29296875 73.01953125 C-1.26485107 71.97128174 -1.2367334 70.92303223 -1.20776367 69.84301758 C-1.20107666 68.51294678 -1.19438965 67.18287598 -1.1875 65.8125 C-1.125625 61.584375 -1.06375 57.35625 -1 53 C-10.57 53 -20.14 53 -30 53 C-30 45.41 -30 37.82 -30 30 C-20.1 30 -10.2 30 0 30 C0 20.1 0 10.2 0 0 Z " fill="#FFFEFE" transform="translate(1012,156)"/>
<path d="M0 0 C52.8 0 105.6 0 160 0 C160 84.48 160 168.96 160 256 C147.46 256 134.92 256 122 256 C120.2740911 249.09636442 121.09473838 243.8584091 123.4375 237.25 C125.61420214 230.76896943 126.71353392 224.87518598 127 218 C132.445 217.01 132.445 217.01 138 216 C137.18456978 210.91334166 136.36659885 205.8271004 135.54638672 200.74121094 C135.26836354 199.01508326 134.99100542 197.28884831 134.71435547 195.5625 C132.76545679 183.18929865 132.76545679 183.18929865 130.32763672 170.90576172 C130 169 130 169 130 165 C132.3203175 163.39269673 134.52435077 162.07073551 137 160.75 C146.17759269 155.70579948 146.17759269 155.70579948 153 148 C152.59118105 144.25897909 151.55534406 141.95845067 149.26953125 139.00390625 C148.71330078 138.28009766 148.15707031 137.55628906 147.58398438 136.81054688 C146.70709961 135.69776367 146.70709961 135.69776367 145.8125 134.5625 C145.24724609 133.82451172 144.68199219 133.08652344 144.09960938 132.32617188 C141.42143468 128.87491582 138.73885029 125.67459285 135.546875 122.6875 C134.70640625 121.800625 133.8659375 120.91375 133 120 C133.28730055 117.66055264 133.61936779 115.3260857 134 113 C131.85484511 110.27110728 131.85484511 110.27110728 129 108 C125.59247889 104.30851879 124.61873824 101.9499059 124 97 C123.38325228 95.31422289 122.71727778 93.64551962 122 92 C121.71125 91.0925 121.4225 90.185 121.125 89.25 C120.25473559 86.85437207 120.25473559 86.85437207 118.20703125 86.37890625 C112.98810871 85.48291424 108.59621776 85.0023639 104 87.875 C100.58895313 91.49923729 100.86473645 93.91165303 100.875 98.8125 C100.87242188 100.03582031 100.86984375 101.25914063 100.8671875 102.51953125 C100.98054527 105.49017156 101.30854754 108.1189481 102 111 C103.98 111 105.96 111 108 111 C107.67 112.65 107.34 114.3 107 116 C105.7625 116.4021875 105.7625 116.4021875 104.5 116.8125 C102.7675 117.4003125 102.7675 117.4003125 101 118 C99.99066406 118.25716797 99.99066406 118.25716797 98.9609375 118.51953125 C95.88590165 119.41209784 93.68352973 120.15195309 91.63671875 122.69140625 C88.45452237 128.60450571 87.92257993 134.46081676 88.0625 141.0625 C88 145 88 145 87.02734375 148.01953125 C85.20539941 154.05809027 85.56746981 160.47376295 85.43359375 166.7265625 C85.38912109 168.2115625 85.38912109 168.2115625 85.34375 169.7265625 C85.32505859 170.61939941 85.30636719 171.51223633 85.28710938 172.43212891 C84.97277383 175.24350753 84.05321454 177.38877264 83 180 C83.0825388 184.7309208 83.0825388 184.7309208 85.55859375 188.484375 C86.27208984 189.23460937 86.27208984 189.23460937 87 190 C86.89154248 193.14526818 86.53827762 195.90988774 86 199 C85.88285645 199.68690918 85.76571289 200.37381836 85.64501953 201.08154297 C84.79453938 206.06019642 83.90701997 211.03135599 83 216 C85.97 216.33 88.94 216.66 92 217 C92.17015625 217.70382812 92.3403125 218.40765625 92.515625 219.1328125 C93.92738146 224.88496916 95.47858381 230.53496013 97.25 236.1875 C99.42980502 243.71697917 99.58253116 248.83493767 96 256 C86.1 256 76.2 256 66 256 C65.97672088 249.72757118 65.9569094 243.45529936 65.94506836 237.18286133 C65.9401188 235.06046026 65.9333575 232.93806244 65.92456055 230.81567383 C65.87791267 219.24974527 65.93923331 207.68957984 66.31640625 196.12890625 C66.34975319 194.66589333 66.34975319 194.66589333 66.3837738 193.17332458 C66.41898636 192.27380569 66.45419891 191.3742868 66.49047852 190.44750977 C66.5162648 189.65836685 66.54205109 188.86922394 66.56861877 188.0561676 C67.10211956 185.51324972 68.1206858 184.73059972 70 183 C70.33 182.01 70.66 181.02 71 180 C71.99 179.67 72.98 179.34 74 179 C76.06402602 174.48609146 77.48593709 169.72304949 79 165 C79.26425781 164.23429687 79.52851562 163.46859375 79.80078125 162.6796875 C82.6808888 153.31443983 79.65229221 144.08823526 77.125 135 C76.86847656 134.06712158 76.61195313 133.13424316 76.34765625 132.1730957 C76.09113281 131.29097412 75.83460938 130.40885254 75.5703125 129.5 C75.34102051 128.7059375 75.11172852 127.911875 74.87548828 127.09375 C73.36704678 123.48627808 71.56525239 122.24172462 68.00390625 120.71875 C66.86824219 120.3165625 65.73257813 119.914375 64.5625 119.5 C56.86445296 116.7675874 56.86445296 116.7675874 54 114 C53.5625 110.5 53.5625 110.5 54 107 C54.75990234 106.38318359 54.75990234 106.38318359 55.53515625 105.75390625 C57.879543 102.94689385 57.1746645 99.8803845 56.875 96.4375 C56.82085938 95.40979492 56.82085938 95.40979492 56.765625 94.36132812 C56.63460709 92.1286768 56.63460709 92.1286768 56 89 C50.97120757 85.64747172 45.90202757 85.53158511 40 86 C37.63662853 87.49772727 37.63662853 87.49772727 36 90 C35.44177053 93.4321009 35.44177053 93.4321009 35.625 97.125 C35.63789062 98.36507813 35.65078125 99.60515625 35.6640625 100.8828125 C35.68101928 104.09919939 35.68101928 104.09919939 38 106 C38.63839286 111.74553571 38.63839286 111.74553571 38 114 C33.56595583 117.37675822 28.19932648 118.71761093 22.9609375 120.42578125 C18.43027931 122.83456126 17.67145031 125.82995935 16.19873047 130.58959961 C15.32178098 133.65076041 14.5280639 136.72479498 13.75 139.8125 C13.46898437 140.85470703 13.18796875 141.89691406 12.8984375 142.97070312 C10.30471222 153.19794168 11.52970529 160.64361947 14.875 170.5 C15.13152344 171.30953125 15.38804687 172.1190625 15.65234375 172.953125 C15.90886719 173.72140625 16.16539062 174.4896875 16.4296875 175.28125 C16.77362549 176.31862305 16.77362549 176.31862305 17.12451172 177.37695312 C17.95863346 179.36667176 17.95863346 179.36667176 21 180 C22.625 182.5 22.625 182.5 24 185 C24.33 185.33 24.66 185.66 25 186 C25.16089942 188.25584435 25.251994 190.51668601 25.31640625 192.77734375 C25.33723267 193.48365433 25.35805908 194.1899649 25.3795166 194.91767883 C25.4461823 197.25750196 25.50477663 199.59744027 25.5625 201.9375 C25.58367889 202.73256958 25.60485779 203.52763916 25.62667847 204.34680176 C26.08257877 221.56529108 26.09810591 238.77696319 26 256 C17.42 256 8.84 256 0 256 C0 171.52 0 87.04 0 0 Z " fill="#FF4C53" transform="translate(942,1371)"/>
<path d="M0 0 C4.03888343 3.23110675 6.62292069 6.40013736 7.37109375 11.55859375 C7.7679429 28.76317162 -2.30533012 43.53442866 -13.62109375 55.75 C-16.01952412 58.3590574 -16.98241336 59.55373901 -17.125 63.171875 C-17.08375 64.10515625 -17.0425 65.0384375 -17 66 C-16.36384766 64.91332031 -16.36384766 64.91332031 -15.71484375 63.8046875 C-11.76967229 57.30165762 -8.00628816 51.50314408 -1 48 C2.3858534 47.58051374 5.62068431 47.50585478 9 48 C12.0625 50.4375 12.0625 50.4375 14 53 C14.33 53.33 14.66 53.66 15 54 C15.80983071 60.8105435 15.03973716 66.37554279 11 72 C8.71809758 74.11890939 6.76653461 75.61673269 4 77 C4.49756092 79.75641416 4.49756092 79.75641416 6 82 C10.28381717 82.35698476 12.97908337 82.43443261 16.9375 80.75 C19.77714015 76.96381314 19.43225701 73.80107674 19.65234375 69.16796875 C20.42907132 62.09014788 23.81878004 56.75026782 29 52 C34.25372903 47.82647694 38.19011884 46.402642 45 47 C49.62229488 48.72203143 52.55449419 50.67333588 55 55 C56.03040276 60.49898615 55.12199326 65.35234655 52.40234375 70.2109375 C48.9446739 74.62211519 43.28581341 77.38489035 38 79 C36.68 79 35.36 79 34 79 C34.33 79.99 34.66 80.98 35 82 C38.54960187 83.77480094 42.14506693 83.78207109 46 83 C48.30750747 81.39459889 50.14896927 79.66935942 52.078125 77.62890625 C54.37854208 75.67916251 56.023788 75.27465044 59 75 C60 76 60 76 60.01953125 77.890625 C59.56479572 83.07289407 59.03635664 86.37762866 55 90 C48.53438389 94.95100075 40.84602173 95.01033458 33 94 C29.28476485 92.39006477 26.14724262 90.54200365 23 88 C22.52949219 88.34933594 22.05898437 88.69867187 21.57421875 89.05859375 C20.95160156 89.51363281 20.32898437 89.96867187 19.6875 90.4375 C19.07261719 90.88996094 18.45773437 91.34242187 17.82421875 91.80859375 C12.82099542 95.07622355 6.73131822 94.51967911 1 94 C-3.23133102 92.75460825 -6.04479412 90.36349104 -8.4375 86.6875 C-10.24086027 83.03373528 -10.69151418 80.07225018 -10 76 C-7.61887589 73.55084377 -5.18042593 72.10661532 -2.25 70.375 C0.12145809 69.1987496 0.12145809 69.1987496 1 67 C1.039992 65.00039988 1.04346799 62.99952758 1 61 C-1.92302916 61.32587825 -3.54351949 61.52815717 -5.625 63.6796875 C-10.84730732 72.01757589 -14.83655414 80.46531497 -17.32421875 90.00390625 C-18 92 -18 92 -20 94 C-23.5 94.25 -23.5 94.25 -27 94 C-27.66 93.34 -28.32 92.68 -29 92 C-29 90.68 -29 89.36 -29 88 C-29.60585938 88.433125 -30.21171875 88.86625 -30.8359375 89.3125 C-36.17117107 92.85837831 -40.30480732 94.9210191 -46.79296875 94.54296875 C-50.39082373 93.65783275 -51.80950528 91.92065963 -54 89 C-54.804375 89.4021875 -54.804375 89.4021875 -55.625 89.8125 C-56.40875 90.204375 -57.1925 90.59625 -58 91 C-58.86625 91.50789063 -59.7325 92.01578125 -60.625 92.5390625 C-64.6083823 94.26335067 -68.10322845 94.57404159 -72.375 94.5625 C-73.54832886 94.56431274 -73.54832886 94.56431274 -74.74536133 94.56616211 C-81.97077873 94.36883387 -87.89810312 92.30331942 -94.44921875 89.41015625 C-98.07324458 87.97091167 -101.10781904 87.19887056 -105 87 C-107.75 89.25 -107.75 89.25 -110 92 C-114.81537171 95.10771787 -120.49063568 94.63222213 -126 94 C-129.07365786 92.19196596 -130.43019732 91.13960536 -132 88 C-132.39932772 84.40605049 -132.27697394 82.49624497 -130.5 79.3125 C-125.23148487 74.43912351 -120.02792426 73.83892574 -113 74 C-113.01160156 73.14921875 -113.02320313 72.2984375 -113.03515625 71.421875 C-113.33460113 31.21070556 -113.33460113 31.21070556 -102 19 C-101.48695313 18.44570312 -100.97390625 17.89140625 -100.4453125 17.3203125 C-94.0297206 11.15029349 -86.14289453 8.80728602 -77.375 8.5 C-69.93154631 8.75636598 -64.71489881 10.68944782 -59.0625 15.5 C-55.20644433 20.17400687 -54.7056661 23.3276344 -54.6875 29.4375 C-54.67074219 30.73558594 -54.65398437 32.03367187 -54.63671875 33.37109375 C-55.01459538 37.14579685 -55.71052076 39.01977764 -58 42 C-60.79870027 43.39935013 -62.90498792 43.25265405 -66 43 C-67.69140625 41.953125 -67.69140625 41.953125 -69 40 C-69.17500315 36.76244164 -69.06730577 33.67785106 -68.8828125 30.44921875 C-68.69977234 26.54165291 -68.69977234 26.54165291 -70.3125 23.09375 C-74.11481866 20.6292842 -77.59596488 20.63901351 -82 21 C-86.57221875 22.41602297 -89.91462903 24.2484669 -92.375 28.4375 C-92.91125 29.613125 -93.4475 30.78875 -94 32 C-94.34216553 32.72743408 -94.68433105 33.45486816 -95.03686523 34.2043457 C-96.29268552 37.84956703 -96.66139708 41.47954739 -97.03515625 45.29296875 C-97.16053017 46.47382805 -97.16053017 46.47382805 -97.28843689 47.67854309 C-97.55329452 50.18086953 -97.80856798 52.68404314 -98.0625 55.1875 C-98.32117932 57.70151715 -98.581956 60.21526654 -98.84727478 62.72859192 C-99.0117114 64.28959241 -99.17212831 65.8510226 -99.32814026 67.41288757 C-99.88812689 72.77625379 -99.88812689 72.77625379 -101 75 C-100.41508789 75.11593506 -99.83017578 75.23187012 -99.22753906 75.35131836 C-96.5681563 75.87902809 -93.90907635 76.40824858 -91.25 76.9375 C-90.32960938 77.11990234 -89.40921875 77.30230469 -88.4609375 77.49023438 C-87.57148437 77.66748047 -86.68203125 77.84472656 -85.765625 78.02734375 C-84.54020996 78.27085571 -84.54020996 78.27085571 -83.29003906 78.51928711 C-81.81070481 78.82982113 -80.33716854 79.17012065 -78.87304688 79.54589844 C-72.51990008 81.08615561 -64.2374935 81.11619993 -58.4765625 77.7734375 C-55.64734221 74.37537927 -55.79657619 70.03008143 -55.421875 65.765625 C-54.75078268 59.77550467 -53.38301079 52.38301079 -49 48 C-46.8359375 47.8046875 -46.8359375 47.8046875 -44.375 47.875 C-43.55773437 47.89304687 -42.74046875 47.91109375 -41.8984375 47.9296875 C-41.27195312 47.95289063 -40.64546875 47.97609375 -40 48 C-39.71002298 53.60622235 -40.20607909 58.33915381 -41.5 63.8125 C-43.00763127 70.3172565 -43.32892328 76.3484403 -43 83 C-37.97972116 81.71574262 -35.28576789 80.01777313 -32 76 C-31.28775035 72.72038254 -31.28775035 72.72038254 -31.375 69.0625 C-31.33416319 67.63909338 -31.28553657 66.21589587 -31.23046875 64.79296875 C-31.20130371 64.02645996 -31.17213867 63.25995117 -31.14208984 62.47021484 C-30.10408489 44.42462348 -27.31612374 17.64780695 -13.48828125 4.5703125 C-8.82302563 0.57152197 -6.20714849 -0.63123544 0 0 Z " fill="#FFFAFA" transform="translate(1016,1750)"/>
<path d="M0 0 C24.75 0 49.5 0 75 0 C75 24.75 75 49.5 75 75 C50.25 75 25.5 75 0 75 C0 50.25 0 25.5 0 0 Z " fill="#FF4D54" transform="translate(1027,1159)"/>
<path d="M0 0 C24.75 0 49.5 0 75 0 C75 24.75 75 49.5 75 75 C50.25 75 25.5 75 0 75 C0 50.25 0 25.5 0 0 Z " fill="#FF4D54" transform="translate(942,1159)"/>
<path d="M0 0 C1.31238144 0.00222061 2.62476288 0.00444122 3.97691345 0.00672913 C4.71053573 0.00660859 5.444158 0.00648806 6.20001125 0.00636387 C8.58522973 0.00711291 10.97037099 0.01474069 13.35557556 0.02259827 C14.82395897 0.02406771 16.29234289 0.02508841 17.76072693 0.02565002 C23.21813235 0.03090258 28.67552658 0.04486367 34.13291931 0.05775452 C52.41698181 0.08869202 52.41698181 0.08869202 71.07041931 0.12025452 C71.07041931 24.87025452 71.07041931 49.62025452 71.07041931 75.12025452 C46.32041931 75.12025452 21.57041931 75.12025452 -3.92958069 75.12025452 C-3.95020569 62.93087952 -3.97083069 50.74150452 -3.99208069 38.18275452 C-4.00118469 34.32853821 -4.0102887 30.4743219 -4.01966858 26.50331116 C-4.02418518 21.81056213 -4.02418518 21.81056213 -4.02502441 19.61633301 C-4.02656382 18.07804068 -4.03008868 16.53974959 -4.03515625 15.00146484 C-4.04243487 12.67653799 -4.04348807 10.35168513 -4.04310608 8.02674866 C-4.04532669 6.71436722 -4.0475473 5.40198578 -4.04983521 4.04983521 C-3.89015085 0.15968436 -3.89015085 0.15968436 0 0 Z " fill="#FF4D54" transform="translate(1030.9295806884766,1067.8797454833984)"/>
<path d="M0 0 C24.42 0 48.84 0 74 0 C74 24.42 74 48.84 74 74 C49.58 74 25.16 74 0 74 C0 49.58 0 25.16 0 0 Z " fill="#FF4B52" transform="translate(943,1069)"/>
<path d="M0 0 C3.65283895 2.50828274 6.21038327 6.08055331 7.7578125 10.20703125 C7.8828125 12.95703125 7.8828125 12.95703125 7.7578125 15.20703125 C11.7178125 14.71203125 11.7178125 14.71203125 15.7578125 14.20703125 C15.99564453 12.99466797 15.99564453 12.99466797 16.23828125 11.7578125 C18.69551484 0.50341112 18.69551484 0.50341112 23.7578125 -2.79296875 C27.0078125 -3.16796875 27.0078125 -3.16796875 29.7578125 -2.79296875 C30.2528125 -2.29796875 30.2528125 -2.29796875 30.7578125 -1.79296875 C30.69243174 -0.26840836 30.55412141 1.25321589 30.3828125 2.76953125 C30.28355469 3.66542969 30.18429687 4.56132813 30.08203125 5.484375 C29.65613342 9.0608905 29.22084014 12.63510374 28.7578125 16.20703125 C29.0259375 15.65015625 29.2940625 15.09328125 29.5703125 14.51953125 C32.82744538 8.17669353 37.18338595 1.49424452 43.7578125 -1.79296875 C45.25430612 -1.91302328 46.75656043 -1.96828326 48.2578125 -1.98046875 C49.44890625 -2.00173828 49.44890625 -2.00173828 50.6640625 -2.0234375 C52.7578125 -1.79296875 52.7578125 -1.79296875 54.7578125 0.20703125 C54.953125 2.703125 54.953125 2.703125 54.8828125 5.64453125 C54.86476563 6.61261719 54.84671875 7.58070312 54.828125 8.578125 C54.80492187 9.44566406 54.78171875 10.31320312 54.7578125 11.20703125 C54.7578125 12.19703125 54.7578125 13.18703125 54.7578125 14.20703125 C55.28568359 13.33691406 55.28568359 13.33691406 55.82421875 12.44921875 C59.92568707 5.95968924 64.46489984 0.18921065 71.7578125 -2.79296875 C78.20225694 -2.34852431 78.20225694 -2.34852431 80.7578125 0.20703125 C81.68313736 8.15040443 80.50417831 15.58029348 78.4140625 23.234375 C77.73368043 26.31634378 77.64529985 29.061365 77.7578125 32.20703125 C80.76708405 32.54139476 82.36707329 32.43496245 85.0078125 30.89453125 C87.34718268 27.30192705 87.18115854 24.29880067 87.43359375 20.0859375 C88.27927898 12.57666018 92.29934071 6.29333451 97.7578125 1.20703125 C103.03243583 -2.68614311 109.43384529 -2.66113114 115.7578125 -1.79296875 C119.23617541 -0.1007922 120.58498645 0.94779218 122.7578125 4.20703125 C123.43418082 9.65730155 123.48245496 14.61281783 121.1953125 19.64453125 C115.75722802 25.36149185 110.33304393 28.0942116 102.7578125 30.20703125 C104.37631067 33.35859322 104.37631067 33.35859322 106.859375 33.74609375 C112.21301459 33.92841584 115.10703102 33.4547861 119.1328125 29.76953125 C119.73867187 29.13144531 120.34453125 28.49335937 120.96875 27.8359375 C122.92489409 26.05490674 124.14962453 25.51224474 126.7578125 25.20703125 C127.7578125 26.20703125 127.7578125 26.20703125 128.1953125 29.83203125 C128.131236 34.29335758 126.59179339 36.60692472 123.50390625 39.73046875 C117.56482268 44.75278103 111.63751906 44.72286751 104.08203125 44.5703125 C99.58973143 44.07937962 97.33515706 42.90991381 93.7578125 40.20703125 C92.2728125 39.21703125 92.2728125 39.21703125 90.7578125 38.20703125 C90.05205078 38.73103516 90.05205078 38.73103516 89.33203125 39.265625 C88.70941406 39.72066406 88.08679687 40.17570312 87.4453125 40.64453125 C86.83042969 41.09699219 86.21554687 41.54945312 85.58203125 42.015625 C80.86042556 45.09932893 75.18504882 44.81729021 69.7578125 44.20703125 C67.10217448 42.31014695 66.18538723 41.0621807 64.7578125 38.20703125 C63.82534116 29.68926422 65.90970895 21.45749351 67.7578125 13.20703125 C64.36888877 14.24569468 63.62169627 15.42831809 61.72265625 18.515625 C61.0317519 19.88439777 60.35666658 21.26123862 59.6953125 22.64453125 C59.34388184 23.36012207 58.99245117 24.07571289 58.63037109 24.81298828 C56.24394932 29.81092371 54.49296096 34.73753632 53.328125 40.16796875 C52.7578125 42.20703125 52.7578125 42.20703125 50.7578125 44.20703125 C47.3203125 44.58203125 47.3203125 44.58203125 43.7578125 44.20703125 C41.65023398 42.42258262 40.85409581 40.97070945 40.50805664 38.22607422 C40.42469881 35.79597269 40.44788706 33.38775708 40.5078125 30.95703125 C40.51296875 30.13589844 40.518125 29.31476563 40.5234375 28.46875 C40.58884391 23.30981976 41.02831809 18.31349214 41.7578125 13.20703125 C33.82229749 19.78217226 31.33319799 29.96065168 28.65234375 39.5546875 C27.7578125 42.20703125 27.7578125 42.20703125 25.7578125 44.20703125 C22.3203125 44.58203125 22.3203125 44.58203125 18.7578125 44.20703125 C16.00226994 41.72830119 15.76260398 40.26708443 15.46484375 36.53515625 C15.48464499 35.1754709 15.52022048 33.81593785 15.5703125 32.45703125 C15.59061523 31.41095703 15.59061523 31.41095703 15.61132812 30.34375 C15.646518 28.63117584 15.70032095 26.91900184 15.7578125 25.20703125 C12.7878125 25.53703125 9.8178125 25.86703125 6.7578125 26.20703125 C6.6753125 27.07328125 6.5928125 27.93953125 6.5078125 28.83203125 C5.03231146 35.47178592 1.0144 39.29255119 -4.2421875 43.20703125 C-10.2763559 45.21842072 -17.00723783 45.28459627 -22.7421875 42.51953125 C-27.48101539 38.13611545 -30.92936308 34.19038832 -31.61328125 27.66796875 C-31.89934711 18.20579023 -31.22659252 10.63424218 -24.52734375 3.33984375 C-17.08246042 -3.46969943 -8.92580623 -4.95294738 0 0 Z " fill="#FFFBFB" transform="translate(1235.2421875,1799.79296875)"/>
<path d="M0 0 C4.30057407 2.34576767 6.04876728 5.22845938 7.4921875 9.7578125 C11.77800497 28.68134501 -0.17755365 51.26763975 -9.88671875 66.828125 C-12 70 -12 70 -14.27734375 72.75390625 C-16.29480539 74.88454135 -16.29480539 74.88454135 -15.875 77.6875 C-15.12456118 80.14951065 -15.12456118 80.14951065 -13 82 C-7.81325621 82.48931545 -5.33089465 81.69217775 -1 79 C1.3125 79.3125 1.3125 79.3125 3 80 C3.31346682 83.99670192 3.40395059 86.32674901 1.3125 89.8125 C-2.71138322 93.61887602 -6.562324 94.29169257 -12 94.3125 C-13.010625 94.32925781 -14.02125 94.34601563 -15.0625 94.36328125 C-19.76504316 93.78171674 -22.26801609 91.850684 -25.3125 88.3125 C-25.869375 87.549375 -26.42625 86.78625 -27 86 C-27.58007812 86.40992188 -28.16015625 86.81984375 -28.7578125 87.2421875 C-29.53898438 87.78101563 -30.32015625 88.31984375 -31.125 88.875 C-31.89070312 89.40867187 -32.65640625 89.94234375 -33.4453125 90.4921875 C-38.73997645 93.61717264 -43.79790045 94.41449158 -49.875 94.4375 C-50.58172852 94.44136719 -51.28845703 94.44523437 -52.01660156 94.44921875 C-57.18016322 94.3348436 -60.48755447 93.40299157 -64.421875 90.09375 C-66.2279168 88.62024463 -66.2279168 88.62024463 -70 89 C-71.42307064 89.78591672 -72.81648667 90.62643398 -74.1875 91.5 C-81.45124844 95.27758091 -89.04845199 94.97526405 -97 94 C-102.84525925 92.0264933 -106.06643514 88.39775934 -109 83 C-111.41272245 75.76183264 -111.16017156 66.39411928 -108 59.4375 C-104.90465589 54.11599149 -100.45080696 50.72540348 -95 48 C-92.90051399 47.82528152 -90.79375592 47.73282148 -88.6875 47.6875 C-87.55699219 47.65011719 -86.42648437 47.61273437 -85.26171875 47.57421875 C-81.31033493 48.09002813 -79.77866503 49.19182703 -77 52 C-74.32081097 56.13686331 -74.28389103 60.2233171 -75 65 C-76.94915669 70.99991809 -80.58234863 73.64282706 -86.0625 76.5 C-89.83704246 78.28969479 -91.76318906 79 -96 79 C-96 79.99 -96 80.98 -96 82 C-90.78090796 83.73969735 -84.83047837 84.01583237 -79.60546875 82.140625 C-78.26880084 81.45617167 -76.94900995 80.73680885 -75.65625 79.97265625 C-74 79 -74 79 -71 78 C-71.08701172 76.87464844 -71.08701172 76.87464844 -71.17578125 75.7265625 C-71.51793764 67.96450031 -70.58234166 62.3778265 -66 56 C-61.19796302 50.7816574 -56.74060405 47.34005491 -49.5625 46.6875 C-44.4883491 47.13260096 -41.48616 48.74849684 -37.625 52 C-35.10362877 56.6548392 -35.0989972 60.83376619 -36 66 C-38.93182739 73.66273067 -46.15155762 76.56159583 -53.1484375 79.75 C-54.08945312 80.1625 -55.03046875 80.575 -56 81 C-53.48477991 83.51522009 -52.49221899 83.35317085 -49 83.4375 C-42.11068949 83.33765492 -35.90917236 80.90917236 -31 76 C-30.69514133 74.01911674 -30.69514133 74.01911674 -30.7265625 71.73046875 C-30.70891846 70.85229492 -30.69127441 69.97412109 -30.6730957 69.06933594 C-30.64928833 67.64282715 -30.64928833 67.64282715 -30.625 66.1875 C-29.93299258 44.91480835 -26.58019952 17.9904002 -10.5625 2.4375 C-7.05119418 -0.34519049 -4.48887167 -0.83127253 0 0 Z " fill="#FFFAFA" transform="translate(860,1750)"/>
<path d="M0 0 C3.57957745 2.80561476 5.12583063 5.45031811 5.74609375 9.9765625 C5.75809106 20.60618261 3.9435013 29.59522287 -2.84375 38.02734375 C-7.36152821 42.4015485 -13.11377064 45.03371745 -18.6875 47.8125 C-18.76882642 50.85471065 -18.82815374 53.8947238 -18.875 56.9375 C-18.90013672 57.7934375 -18.92527344 58.649375 -18.95117188 59.53125 C-19.01140155 64.75115534 -18.56778879 68.27078519 -15.6875 72.8125 C-14.06469061 74.43530939 -12.30082134 74.0995901 -10.0625 74.1875 C-4.60633858 74.140666 -1.54005429 72.59014351 2.3125 68.8125 C4.19553962 66.67073993 4.19553962 66.67073993 5.3125 64.8125 C6.9625 65.1425 8.6125 65.4725 10.3125 65.8125 C10.89665047 70.48570377 10.55231078 73.04252575 7.8125 76.9375 C3.88941049 81.73652873 -0.8266145 84.8588715 -6.6875 86.8125 C-19.29464597 87.75849075 -19.29464597 87.75849075 -24.6875 83.8125 C-32.05945387 76.26910534 -33.85449894 68.17839576 -33.75 57.9375 C-33.74097656 56.78507812 -33.73195313 55.63265625 -33.72265625 54.4453125 C-33.71105469 53.57648438 -33.69945312 52.70765625 -33.6875 51.8125 C-34.6775 52.1425 -35.6675 52.4725 -36.6875 52.8125 C-38.09414926 52.95742123 -39.5056133 53.05878931 -40.91796875 53.12890625 C-41.72041016 53.17080078 -42.52285156 53.21269531 -43.34960938 53.25585938 C-44.18298828 53.29517578 -45.01636719 53.33449219 -45.875 53.375 C-46.71998047 53.41818359 -47.56496094 53.46136719 -48.43554688 53.50585938 C-50.51934433 53.61181518 -52.60340103 53.7126502 -54.6875 53.8125 C-54.79296143 54.36599121 -54.89842285 54.91948242 -55.00708008 55.48974609 C-60.06776928 81.87782164 -60.06776928 81.87782164 -63.9375 86.5 C-67.60199188 88.24896203 -69.81893768 87.85403601 -73.6875 86.8125 C-76.68491906 80.81766188 -73.7751152 73.08785656 -72.25 67 C-72.01990234 66.04673828 -71.78980469 65.09347656 -71.55273438 64.11132812 C-69.84526699 57.12803398 -69.84526699 57.12803398 -68.6875 54.8125 C-69.39777344 54.82410156 -70.10804687 54.83570313 -70.83984375 54.84765625 C-71.75894531 54.85667969 -72.67804688 54.86570312 -73.625 54.875 C-74.54152344 54.88660156 -75.45804688 54.89820313 -76.40234375 54.91015625 C-78.6875 54.8125 -78.6875 54.8125 -79.6875 53.8125 C-80.05836093 47.9714404 -80.05836093 47.9714404 -79.6875 45.8125 C-76.37379 43.60336 -75.3428979 43.58768447 -71.5 43.6875 C-70.59894531 43.70554687 -69.69789062 43.72359375 -68.76953125 43.7421875 C-68.08246094 43.76539063 -67.39539062 43.78859375 -66.6875 43.8125 C-66.59662109 42.83410156 -66.59662109 42.83410156 -66.50390625 41.8359375 C-65.78407948 34.32759054 -65.78407948 34.32759054 -65.125 30.8125 C-63.88192689 22.42053683 -63.88192689 22.42053683 -66.6875 14.8125 C-69.85518804 14.13370971 -71.8526799 14.33709364 -74.68359375 15.94921875 C-79.04533444 19.09066148 -82.43802894 22.54756923 -85.6875 26.8125 C-87.3375 26.4825 -88.9875 26.1525 -90.6875 25.8125 C-91.14979687 20.03378913 -90.40154687 17.26935624 -86.6875 12.8125 C-80.6513098 6.57192412 -73.96780712 1.78120037 -65.0625 1.3125 C-60.29491095 1.56254838 -57.48658287 2.92519702 -53.6875 5.8125 C-50.27609634 10.98924542 -50.25386719 15.51738513 -50.375 21.5 C-50.38756836 22.82596191 -50.38756836 22.82596191 -50.40039062 24.17871094 C-50.51776358 30.57553699 -51.21904027 36.57154615 -52.6875 42.8125 C-46.0875 42.1525 -39.4875 41.4925 -32.6875 40.8125 C-32.130625 38.42 -31.57375 36.0275 -31 33.5625 C-27.70883602 20.14604609 -23.13582968 8.20794177 -11.6875 -0.1875 C-7.40203504 -1.61598832 -4.18362268 -1.84857746 0 0 Z " fill="#FFFBFB" transform="translate(1189.6875,1757.1875)"/>
<path d="M0 0 C2.0295984 -0.00216606 4.05863361 -0.02030706 6.08813477 -0.03930664 C28.51161158 -0.13784814 28.51161158 -0.13784814 34.99633789 4.18530273 C35.40477713 6.89733925 35.12970656 9.42901694 34.99633789 12.18530273 C31.71692863 13.82500737 28.09796591 13.33016009 24.49633789 13.31030273 C23.6593335 13.30836914 22.8223291 13.30643555 21.95996094 13.30444336 C13.28685544 13.2459894 4.64816211 12.76415836 -4.00366211 12.18530273 C-4.04124634 13.03910522 -4.04124634 13.03910522 -4.07958984 13.91015625 C-4.19660105 16.52287587 -4.31884491 19.13532636 -4.44116211 21.74780273 C-4.48047852 22.64305664 -4.51979492 23.53831055 -4.56030273 24.46069336 C-4.79698994 29.43112464 -5.20187883 34.27353793 -6.00366211 39.18530273 C-5.06514404 39.16959229 -5.06514404 39.16959229 -4.10766602 39.15356445 C-1.28137201 39.11207082 1.544858 39.08599801 4.37133789 39.06030273 C5.35618164 39.04354492 6.34102539 39.02678711 7.35571289 39.00952148 C8.76723633 38.99985352 8.76723633 38.99985352 10.20727539 38.98999023 C11.51124268 38.97427979 11.51124268 38.97427979 12.84155273 38.95825195 C14.99633789 39.18530273 14.99633789 39.18530273 16.99633789 41.18530273 C17.34124111 45.23791561 17.29797672 46.7328445 14.99633789 50.18530273 C12.1136864 51.14618657 10.31971518 51.30201214 7.32836914 51.28295898 C6.43569336 51.27973633 5.54301758 51.27651367 4.62329102 51.27319336 C3.69452148 51.26481445 2.76575195 51.25643555 1.80883789 51.24780273 C0.39828125 51.24103516 0.39828125 51.24103516 -1.04077148 51.23413086 C-3.36179923 51.22234899 -5.68269855 51.20589832 -8.00366211 51.18530273 C-8.0389502 51.90645264 -8.07423828 52.62760254 -8.1105957 53.37060547 C-8.66909796 63.38266389 -10.74608205 73.19987083 -17.96850586 80.56030273 C-24.12994882 85.47999615 -31.12234438 86.97622079 -38.90209961 86.70483398 C-45.5502739 85.59122293 -51.70475884 82.6390143 -56.32397461 77.70874023 C-58.55262472 74.36058216 -58.44982703 72.12642616 -58.00366211 68.18530273 C-57.01366211 67.19530273 -57.01366211 67.19530273 -56.00366211 66.18530273 C-53.19116211 66.18530273 -53.19116211 66.18530273 -50.00366211 67.18530273 C-48.26892499 69.12655617 -46.59909701 71.12803142 -45.00366211 73.18530273 C-41.53128024 75.7317161 -38.21154204 75.62060066 -34.00366211 75.18530273 C-29.51769751 72.85605188 -27.25709676 70.65533114 -25.00366211 66.18530273 C-24.34260726 63.56012607 -23.7812804 61.02880607 -23.31616211 58.37280273 C-23.18661133 57.67993164 -23.05706055 56.98706055 -22.92358398 56.27319336 C-22.60808651 54.5788551 -22.30463564 52.88228115 -22.00366211 51.18530273 C-23.64334961 51.24717773 -23.64334961 51.24717773 -25.31616211 51.31030273 C-29.00366211 51.18530273 -29.00366211 51.18530273 -32.00366211 49.18530273 C-32.31616211 45.68530273 -32.31616211 45.68530273 -32.00366211 42.18530273 C-30.00366211 40.18530273 -30.00366211 40.18530273 -27.62084961 39.98999023 C-26.2634668 40.02479492 -26.2634668 40.02479492 -24.87866211 40.06030273 C-23.96858398 40.07834961 -23.05850586 40.09639648 -22.12084961 40.11499023 C-21.42217773 40.13819336 -20.72350586 40.16139648 -20.00366211 40.18530273 C-20.02686523 39.57686523 -20.05006836 38.96842773 -20.07397461 38.34155273 C-20.24934859 29.8233881 -19.1859616 21.59863036 -18.00366211 13.18530273 C-20.25709805 13.5829679 -22.50638487 14.00419241 -24.75366211 14.43530273 C-26.00663086 14.66733398 -27.25959961 14.89936523 -28.55053711 15.13842773 C-32.21873807 16.25050676 -33.75262281 17.1202966 -36.00366211 20.18530273 C-36.33517183 24.29602323 -36.12679576 27.520381 -35.37866211 31.56030273 C-35.25491211 32.42655273 -35.13116211 33.29280273 -35.00366211 34.18530273 C-37.00366211 36.18530273 -37.00366211 36.18530273 -40.94116211 36.56030273 C-44.69736205 36.4718415 -44.69736205 36.4718415 -46.94116211 34.37280273 C-49.69173994 28.70984838 -50.12853189 22.20595214 -48.42553711 16.11889648 C-45.81250261 10.80968547 -41.26045548 7.63658374 -36.00366211 5.18530273 C-24.23290454 1.21244108 -12.36867995 -0.00147124 0 0 Z " fill="#FFFBFB" transform="translate(734.003662109375,1758.814697265625)"/>
<path d="M0 0 C0.66 0 1.32 0 2 0 C4.47271229 14.18501153 5.99281514 28.34318604 7.1875 42.6875 C7.36591785 44.76893333 7.54495115 46.85031399 7.72460938 48.93164062 C8.15680559 53.953851 8.58077706 58.97669076 9 64 C3.72 64 -1.56 64 -7 64 C-6.49329996 58.09920905 -5.97810658 52.19923568 -5.45581055 46.29980469 C-5.28010399 44.30260152 -5.10652026 42.3052102 -4.93530273 40.30761719 C-3.77385439 26.77895783 -2.18261346 13.40288385 0 0 Z " fill="#FF535A" transform="translate(987,1563)"/>
<path d="M0 0 C0.99 0 1.98 0 3 0 C6.71003841 7.42007681 3.65374347 18.35883121 1.48046875 25.859375 C-5.80491329 47.40245665 -5.80491329 47.40245665 -11 50 C-11.79125614 41.15551467 -10.46291071 32.96871434 -8.75 24.3125 C-8.54544189 23.25619385 -8.34088379 22.1998877 -8.13012695 21.11157227 C-4.74661071 4.74661071 -4.74661071 4.74661071 0 0 Z " fill="#FF5258" transform="translate(854,1760)"/>
<path d="M0 0 C3.3 0 6.6 0 10 0 C11.24432122 12.13213185 12.0742764 24.08717896 9 36 C6.525 36.495 6.525 36.495 4 37 C3.26757812 34.02148438 3.26757812 34.02148438 2.53515625 31.04296875 C2.08989295 29.34316798 1.55566015 27.66698046 1 26 C0.85013589 24.0093556 0.75171962 22.01464609 0.68359375 20.01953125 C0.64169922 18.85615234 0.59980469 17.69277344 0.55664062 16.49414062 C0.51732422 15.27919922 0.47800781 14.06425781 0.4375 12.8125 C0.39431641 11.58595703 0.35113281 10.35941406 0.30664062 9.09570312 C0.2004691 6.06391619 0.09842048 3.03204685 0 0 Z " fill="#FF5158" transform="translate(1047,1590)"/>
<path d="M0 0 C0.14695312 1.12148437 0.14695312 1.12148437 0.296875 2.265625 C1.16695628 7.99616036 1.68405836 10.98170951 6 15 C6.08594668 19.0394939 5.24403507 20.68817741 2.75 23.875 C0 26 0 26 -2.5 26.6875 C-5.52847634 25.85466901 -7.17110088 24.48087328 -9.05078125 21.97265625 C-11.19056365 17.52578336 -10.71220992 12.56204373 -9.41796875 7.90625 C-7.26992944 2.48446093 -5.93107679 0 0 0 Z " fill="#FF5258" transform="translate(1226,1808)"/>
<path d="M0 0 C0.66 0 1.32 0 2 0 C2 0.66 2 1.32 2 2 C2.556875 2.268125 3.11375 2.53625 3.6875 2.8125 C11.96774194 7.06451613 11.96774194 7.06451613 14 10 C14.12553422 14.51923207 11.50659997 17.23181307 8.6328125 20.41796875 C6.61831051 22.36981876 4.50467987 23.74766006 2 25 C-3.81149365 20.37452546 -3.81149365 20.37452546 -4.28125 16.94921875 C-3.70322937 11.13804704 -1.83300194 5.52206246 0 0 Z " fill="#FF5157" transform="translate(1071,1505)"/>
<path d="M0 0 C1.875 0.75 1.875 0.75 2.875 1.75 C3.42615667 9.32840419 2.32164951 17.05776893 -2.5 23.1875 C-8.19817073 28.75 -8.19817073 28.75 -12.125 28.75 C-12.09651255 21.89876906 -10.77997558 16.05959646 -8.25 9.75 C-7.86497314 8.78018188 -7.86497314 8.78018188 -7.47216797 7.79077148 C-4.00873538 -0.47161593 -4.00873538 -0.47161593 0 0 Z " fill="#FF5259" transform="translate(1184.125,1765.25)"/>
<path d="M0 0 C1.32 0.33 2.64 0.66 4 1 C4.86597328 13.43633848 0.72686466 23.62381126 -6 34 C-7.29464186 35.37093326 -8.61844346 36.71670071 -10 38 C-9.43222715 24.85605856 -6.82046175 11.37675382 0 0 Z " fill="#FF545B" transform="translate(1009,1760)"/>
<path d="M0 0 C2.125 1.625 2.125 1.625 3 4 C3 8.15356049 2.63926076 10.24451001 -0.0625 13.4375 C-4.16772583 15.62113076 -6.37171706 15.58771847 -11 15 C-13.5 13.4375 -13.5 13.4375 -15 11 C-15.625 7.5625 -15.625 7.5625 -15 4 C-10.62192468 -1.3884004 -6.58360835 -2.10005511 0 0 Z " fill="#FFF6F7" transform="translate(980,1776)"/>
<path d="M0 0 C0.33 0.33 0.66 0.66 1 1 C0.84254985 5.17242906 0.6928738 7.3071262 -2.3125 10.3125 C-8.18518519 14 -8.18518519 14 -12 14 C-11.59573665 8.13818137 -10.7971314 4.7176481 -7 0 C-4.31633121 -1.3418344 -2.84719317 -0.73004953 0 0 Z " fill="#FF565D" transform="translate(1347,1808)"/>
<path d="M0 0 C3.29714793 0.32971479 4.6226839 0.6226839 7 3 C6.90617143 6.47165699 6.04109943 7.94802132 3.875 10.6875 C0.48608926 13.41336299 -1.8010829 14.09435121 -6 15 C-6.45826062 9.2717423 -5.55825861 6.5001506 -2 2 C-1.34 1.34 -0.68 0.68 0 0 Z " fill="#FF555B" transform="translate(807,1807)"/>
<path d="M0 0 C4.55555556 0.55555556 4.55555556 0.55555556 6 2 C6.375 4.75 6.375 4.75 6 8 C3.41267346 11.16228799 0.86778096 13.58181365 -3 15 C-3.99 15 -4.98 15 -6 15 C-6.45826062 9.2717423 -5.55825861 6.5001506 -2 2 C-1.34 1.34 -0.68 0.68 0 0 Z " fill="#FF535A" transform="translate(1054,1807)"/>
<path d="M0 0 C4.55555556 0.55555556 4.55555556 0.55555556 6 2 C6.4375 4.75 6.4375 4.75 6 8 C2.32016945 11.85506058 -0.78706865 13.63470846 -6 15 C-6.45826062 9.2717423 -5.55825861 6.5001506 -2 2 C-1.34 1.34 -0.68 0.68 0 0 Z " fill="#FF4F56" transform="translate(768,1807)"/>
<path d="M0 0 C2.85676794 4.28515191 2.61167134 7.96660817 2 13 C1.18280921 15.26639612 0.17600438 17.33524579 -0.91015625 19.484375 C-3.04596535 24.41434296 -3.92969615 29.75388948 -5 35 C-5.66 35 -6.32 35 -7 35 C-7.28812246 29.2754617 -6.28035615 24.64745402 -4.625 19.1875 C-2.77010744 12.82322115 -1.15940468 6.5348264 0 0 Z " fill="#FF6066" transform="translate(1038,1514)"/>
<path d="M0 0 C2.30576694 3.64548133 2.23699872 6.75210978 2.1875 11 C2.18105469 12.216875 2.17460938 13.43375 2.16796875 14.6875 C2.03394204 17.33063144 1.78329524 19.49345523 1 22 C0.34 22 -0.32 22 -1 22 C-3.19544496 15.41366512 -4.29528229 9.57090054 -1.5 3 C-1.005 2.01 -0.51 1.02 0 0 Z " fill="#FF6369" transform="translate(967,1516)"/>
<path d="M0 0 C2 1 2 1 3.125 3.625 C4.83707195 10.22870609 3.79960024 15.58892416 2 22 C1.34 22 0.68 22 0 22 C-1.08187107 18.48821216 -1.13346699 15.22447434 -1.125 11.5625 C-1.12757813 10.45003906 -1.13015625 9.33757812 -1.1328125 8.19140625 C-1.01399223 5.33622508 -0.65353269 2.77492054 0 0 Z " fill="#FF6066" transform="translate(1008,1516)"/>
<path d="M0 0 C0.33 0.66 0.66 1.32 1 2 C-0.3984375 4.8203125 -0.3984375 4.8203125 -2.375 8.125 C-3.02210938 9.22070312 -3.66921875 10.31640625 -4.3359375 11.4453125 C-4.88507812 12.28835938 -5.43421875 13.13140625 -6 14 C-6.33 14 -6.66 14 -7 14 C-7.61658031 8.89119171 -7.61658031 8.89119171 -7 6 C-4.96073101 3.55696597 -2.63153386 1.7722575 0 0 Z " fill="#FF545B" transform="translate(1005,1804)"/>
<path d="M0 0 C0.66 0 1.32 0 2 0 C1.85769192 1.41702513 1.71099254 2.8336096 1.5625 4.25 C1.48128906 5.03890625 1.40007812 5.8278125 1.31640625 6.640625 C1.02365007 8.82364639 0.57935581 10.8773182 0 13 C-0.66 13 -1.32 13 -2 13 C-2.19294408 8.17639811 -1.75747614 4.50353262 0 0 Z " fill="#FF6B71" transform="translate(1033,1536)"/>
</svg>
